<mxfile host="app.diagrams.net" agent="Mozilla/5.0 (Windows NT 10.0; Win64; x64) AppleWebKit/537.36 (KHTML, like Gecko) Chrome/138.0.0.0 Safari/537.36 Edg/138.0.0.0" version="28.0.3">
  <diagram name="第 1 页" id="AWBHnVvYQGW8F5OPRe9A">
    <mxGraphModel dx="1570" dy="897" grid="0" gridSize="10" guides="1" tooltips="1" connect="1" arrows="1" fold="1" page="1" pageScale="1" pageWidth="1654" pageHeight="2336" math="0" shadow="0">
      <root>
        <mxCell id="0" />
        <mxCell id="1" parent="0" />
        <mxCell id="n0JWKjeLG8hHYBPUIH6i-119" style="edgeStyle=orthogonalEdgeStyle;rounded=0;orthogonalLoop=1;jettySize=auto;html=1;exitX=1;exitY=0.25;exitDx=0;exitDy=0;entryX=0;entryY=0.5;entryDx=0;entryDy=0;" edge="1" parent="1" source="lMV4DP2rYy61IQfFI9Z5-1" target="lMV4DP2rYy61IQfFI9Z5-11">
          <mxGeometry relative="1" as="geometry" />
        </mxCell>
        <mxCell id="lMV4DP2rYy61IQfFI9Z5-1" value="" style="rounded=0;whiteSpace=wrap;html=1;" parent="1" vertex="1">
          <mxGeometry x="460" y="300" width="160" height="280" as="geometry" />
        </mxCell>
        <mxCell id="lMV4DP2rYy61IQfFI9Z5-2" value="&lt;font style=&quot;font-size: 11px;&quot;&gt;Path Group 1&amp;nbsp;&amp;nbsp;&lt;/font&gt;" style="strokeWidth=2;html=1;shape=mxgraph.flowchart.multi-document;whiteSpace=wrap;fontStyle=1" parent="1" vertex="1">
          <mxGeometry x="493" y="340" width="88" height="60" as="geometry" />
        </mxCell>
        <mxCell id="lMV4DP2rYy61IQfFI9Z5-7" value="" style="rounded=1;whiteSpace=wrap;html=1;fontStyle=1" parent="1" vertex="1">
          <mxGeometry x="450" y="600" width="180" height="80" as="geometry" />
        </mxCell>
        <mxCell id="n0JWKjeLG8hHYBPUIH6i-68" style="edgeStyle=orthogonalEdgeStyle;rounded=0;orthogonalLoop=1;jettySize=auto;html=1;exitX=0;exitY=0.5;exitDx=0;exitDy=0;entryX=0;entryY=0.5;entryDx=0;entryDy=0;" edge="1" parent="1" source="lMV4DP2rYy61IQfFI9Z5-8">
          <mxGeometry relative="1" as="geometry">
            <mxPoint x="921" y="431.5" as="targetPoint" />
            <Array as="points">
              <mxPoint x="904" y="411.5" />
              <mxPoint x="904" y="431.5" />
            </Array>
          </mxGeometry>
        </mxCell>
        <mxCell id="lMV4DP2rYy61IQfFI9Z5-8" value="" style="rounded=0;whiteSpace=wrap;html=1;fontStyle=1" parent="1" vertex="1">
          <mxGeometry x="864" y="308.5" width="240" height="189" as="geometry" />
        </mxCell>
        <mxCell id="n0JWKjeLG8hHYBPUIH6i-34" style="edgeStyle=orthogonalEdgeStyle;rounded=0;orthogonalLoop=1;jettySize=auto;html=1;exitX=0.5;exitY=0;exitDx=0;exitDy=0;entryX=0.25;entryY=0;entryDx=0;entryDy=0;" edge="1" parent="1" source="lMV4DP2rYy61IQfFI9Z5-9" target="lMV4DP2rYy61IQfFI9Z5-11">
          <mxGeometry relative="1" as="geometry">
            <mxPoint x="710" y="330" as="targetPoint" />
            <Array as="points">
              <mxPoint x="320" y="420" />
              <mxPoint x="320" y="280" />
              <mxPoint x="709" y="280" />
            </Array>
          </mxGeometry>
        </mxCell>
        <mxCell id="lMV4DP2rYy61IQfFI9Z5-9" value="Mutator" style="rounded=1;whiteSpace=wrap;html=1;fontStyle=1" parent="1" vertex="1">
          <mxGeometry x="300" y="420" width="100" height="60" as="geometry" />
        </mxCell>
        <mxCell id="n0JWKjeLG8hHYBPUIH6i-13" style="edgeStyle=orthogonalEdgeStyle;rounded=0;orthogonalLoop=1;jettySize=auto;html=1;exitX=0.5;exitY=1;exitDx=0;exitDy=0;" edge="1" parent="1" source="lMV4DP2rYy61IQfFI9Z5-10">
          <mxGeometry relative="1" as="geometry">
            <mxPoint x="630" y="640" as="targetPoint" />
            <Array as="points">
              <mxPoint x="740" y="510" />
              <mxPoint x="740" y="640" />
              <mxPoint x="630" y="640" />
            </Array>
          </mxGeometry>
        </mxCell>
        <mxCell id="n0JWKjeLG8hHYBPUIH6i-114" style="edgeStyle=orthogonalEdgeStyle;rounded=0;orthogonalLoop=1;jettySize=auto;html=1;exitX=1;exitY=0.5;exitDx=0;exitDy=0;endArrow=none;endFill=0;" edge="1" parent="1" source="lMV4DP2rYy61IQfFI9Z5-10">
          <mxGeometry relative="1" as="geometry">
            <mxPoint x="864" y="401" as="targetPoint" />
            <Array as="points">
              <mxPoint x="832" y="480" />
              <mxPoint x="832" y="402" />
              <mxPoint x="864" y="402" />
            </Array>
          </mxGeometry>
        </mxCell>
        <mxCell id="n0JWKjeLG8hHYBPUIH6i-115" style="edgeStyle=orthogonalEdgeStyle;rounded=0;orthogonalLoop=1;jettySize=auto;html=1;exitX=1;exitY=0.5;exitDx=0;exitDy=0;endArrow=none;endFill=0;" edge="1" parent="1" source="lMV4DP2rYy61IQfFI9Z5-10">
          <mxGeometry relative="1" as="geometry">
            <mxPoint x="864" y="569" as="targetPoint" />
            <Array as="points">
              <mxPoint x="832" y="480" />
              <mxPoint x="832" y="569" />
            </Array>
          </mxGeometry>
        </mxCell>
        <mxCell id="lMV4DP2rYy61IQfFI9Z5-10" value="&lt;b&gt;Instrumented&lt;/b&gt;&lt;div&gt;&lt;b&gt;Program&lt;/b&gt;&lt;/div&gt;" style="rounded=1;whiteSpace=wrap;html=1;" parent="1" vertex="1">
          <mxGeometry x="679" y="450" width="120" height="60" as="geometry" />
        </mxCell>
        <mxCell id="lMV4DP2rYy61IQfFI9Z5-12" style="edgeStyle=orthogonalEdgeStyle;rounded=0;orthogonalLoop=1;jettySize=auto;html=1;exitX=0.5;exitY=1;exitDx=0;exitDy=0;" parent="1" source="lMV4DP2rYy61IQfFI9Z5-11" target="lMV4DP2rYy61IQfFI9Z5-10" edge="1">
          <mxGeometry relative="1" as="geometry" />
        </mxCell>
        <mxCell id="lMV4DP2rYy61IQfFI9Z5-11" value="Seed Queue" style="rounded=1;whiteSpace=wrap;html=1;fontStyle=1" parent="1" vertex="1">
          <mxGeometry x="679" y="340" width="120" height="60" as="geometry" />
        </mxCell>
        <mxCell id="lMV4DP2rYy61IQfFI9Z5-16" value="" style="rounded=0;whiteSpace=wrap;html=1;fontStyle=1" parent="1" vertex="1">
          <mxGeometry x="864" y="497.5" width="240" height="120" as="geometry" />
        </mxCell>
        <mxCell id="lMV4DP2rYy61IQfFI9Z5-51" value="Path Seed Pool" style="text;html=1;align=center;verticalAlign=middle;whiteSpace=wrap;rounded=0;fontStyle=1" parent="1" vertex="1">
          <mxGeometry x="522" y="300" width="100" height="30" as="geometry" />
        </mxCell>
        <mxCell id="lMV4DP2rYy61IQfFI9Z5-71" value="" style="shape=image;verticalLabelPosition=bottom;labelBackgroundColor=default;verticalAlign=top;aspect=fixed;imageAspect=0;image=data:image/png,iVBORw0KGgoAAAANSUhEUgAAALQAAAA4CAYAAABUv9KRAAAABWZkRUNSJJPjAOWrYpkAAA6bSURBVHgB5cRjtCVn2oDh+3mravPY57RtxLYzM0kGydi2bdu2EYxi22bbPH2szap6n2/Vj7PWXr06mWimZ773x3Whquoyl/1/ZABc5rL/jwyAy1z2/5EBcNn/Cigz0ttLb28vvSNlAFz2eAyAy/7bUd7CP95zPDO7DuclH/kIH/nIR3jN8U2IdHH4R25kBABwWS0D4LL/ZuU1P+H4rlm8Z8truHLLg1z5m9/wm9/8hisfLLP7z4ez5qsn0Hz8b+gFAFw2yQC47L8Va77D4YveyoMrf82V/3gNCzMAMKnrJX/hLy9Ow02v5SW/6QXAZZMMgMv+G8GDfOT09/JQ49n85C+vYSEAUAsynP6alwBw01f+whYAwGUJA+Cy/0ZbvvMSvroVZrzlM7ykCwD2hYUrWQCw9kbuLAOAyxIGwGX/beBOvvKRtcAC3vOWlQD8KzBCeQQAXJYwAC77b8Odv+E3FaDxdA6fCQCPh5FeRgDSC5nZBQCTylv+wUe+ciW9AIArDIDL/ttsufNOKgArVzITAHg85TUPsgfg8MNZCACUt1zJR87pIjvr+Xz1QegCAFxhAFz236Z3zRoA0gsX0gUAPJ4b/3EVACvOOZ4uANbwj3/08pLvfIezAQDXGACX/bfJNDUBUBkZAeDxUP4LPzkfaDybj7xkJgCwkJe85zWsnNlEBgD4V0bu/Anvec1reM1rXsNrvnMn5fKdfOX443nJX9YA8L/GAPynwAhXvmYhXa/5B2UAwGX7snDlSgC480YeBAD2ZctPPsM/gRWf+Qov6QKAp4re33DO8b+B05tY89vf8iBdZBjhwTtv4vyXfoUrAYD/JQbgP2XkLy/hjN+uZc9vn8/xP9kCgMv2JXPOazgbYOt3+MmNALA31nyHc967lsbjfs1f3rMQgKdjzV9+QtdvruQtvTey5cVXcON7ZkLmdF5zDgD8LzIA/wms+Q7Hv/RBTvv1alb/+jjWvPUcvrMGAFy2NzIv4TdXvJhGKvz0nHP4yxYAmDRy50c4fNF7Kb/4z9x542tYCAA8HQvfcyd/mfkRDn/vTL7zm9NpAgASrFjJQgDgf4kB+HeDMndeuYX3rN7Cla9ZyMLX3Ejv6vew5co7KQMALttb0+l/Ycsd3+bszD956Syh6/iX8JrXvIbTV3ax8C1beMkVm3nwLy9hIQDwdMEaPvKSnzJ63DkcnwEA2MKaNZA+/HBmAgD/SwzAvxtkOPw93+E1CzMAJDILX8N33nM4GQDgmer9x0+4shcAnizYwl9+ciUjAMB/k6bD38M/tmzmzy/uZE/vCF3Hv4ff3NlL74N/4T2nzyQDADwTPPgbfrMV6OqiCwBg5EaufCjNa15yOAD/awzA/zIY4ca3LOScNcdzfBcAPFkwk9MX/oPjD/8Oa8oA8N9i5M6PcHh2Fu8ZeQ9//s5XeM9LVtKVAYB/BcoA0NtLLwAAa/jLe17Daz7yD3oBgEnceSMPAjDCP97yHq467id85ngA+F9jAJ5tvVd+hZcc34WIkJCmlZz+mo9wZS8AJMp3/oTXnL4QEUEkw8rTX8NHruwF4MmCEa58yUxek/kNN35kIRkA4KloOv4n3PiZOzn+8O+wBgDY39b85ngWvuRBDn/3u1m55aO89IwD6M4KC1/yGx4sA0Bi5Mbf8I8tADDpwd+8hpcc/hrOB7jpPZzzktfwmweB3gf5zXd/y2+/+nw+ciUAsPIj/OPDh5He+lUOkCaapJm3jHyGO/7xGroAgP81BuDZ1nX6R/jLjTfy5RkAx/HrNQ9y5W++wuldAJDIHP4WfnPllXx7ARz24y08eOVv+MrpXQA8Wb2/OYcz7nwL//jO4WQAgKej6fSf8JOFH+Hwl1zJCACwv1C+k9/8ZSW/efBKvvOd73DlGmX331/NAmDt+a/lgKyQ6eqiq6uL43/TxOEzAWDSytf8hr/cOYKqojrCnX/5Da9ZCXS9hCt1mF8fB2UAAJo4/Ct3UlalNLyFXlV6r3wPhzcBwP8iA/DvQPlBbtwKzDiclV0AsDdYw4NrGzl8ZRcATwW9v+Elr72Jwz7yHlYCAE8XNHHOZ95D0/kv4SN3AsD+QuZwvnLldzi9CQASXef8hjVaYvUNf+fP33437/nMT/jLjVt48Dfn0AUA/CuUe7nxO+fwkfK3+czpAFAr09REBgD4X2YA/h148EZuBNKHH89CAGBvrHmQO9PHc/hMAHgq7vzMe7iJ43jLOV0APFMsfAkv6Rzlp+/5Cb0AwH8TyLDw+HN4yXu+w1fecg7HL8wA8GRRHoHj/8KWO9/DQgDg/yMD8O+w5c47qQArj19JBgDYG2seZO3M4zm8CwCeLLiR3/xmFBaczuFdAFALyoxseZAr//EP/vGPO+kFoEzvg1fyk498hN88OAJALVjJ8ccDd32F76wBgP9PaFrI8Su7yAAA/18ZgH+HNXc+BKRZubALgH158M4bSa9cSBcA8GRx51/4TQVYuZCFAEAtRrZw55Xf4S3Pfz7Pf/5L+M6Da/jN8V10H/8S3vrVr/LaAw7nO1sAoNbCwxcAW7nyyi0APBF6H+Qf//gHT8Y//nEja8oA4LL/BAPwbIM1PPggwOEcvhAA9ga9PHjnHlYev5IMAPBkbbnzTioAZADYG00LOf0tL+F4gHQXd77meH5zzpUMj2zh16cB9LKlFwBqdXXNBOChO9cA8ERY8xve8pa38GS85S1f4cZeAHDZf4IBeLZRfpAb1wKNK1nYBQB7gy3ceWcjh6/sAuCp6F2zBgAyALAvrHmQOwEqd7Hl8L/wj/ccThNbWPMgkD6ew2cCQK1MUxMAPLiGLQDA4+H479Db28uT0dt7JW+ZCQBP5LLLLuMzn/kM/01KpRIA/ysMwLONB2/kRiB9/OHMBAD2xpY7uZPjOXwmADwVIyMVABYsnAnAvpQfvJG1QONxv+bKnxxPE0Dvg9y5B5h5PId3AYDL/j8yAM+23jVrqAB0zaQLANhb743/4KHDz+H4LgBIjNz5E97zmtfwmte8htd8507K5Tv5yvHH85K/rAFgUtfMTgDWPrgFgH158MYbgTQv+cxrWAgAcOeV3AQ0nn44MwGAfSEDAP9pz3nOc/jMZz7Df5NsNgvA/woD8Gwrj/QCMHNhFwB7g17+8ZM7Oe0tp9MFAND7G845/jdwehNrfvtbHqSLDCM8eOdNnP/Sr3AlAJBYuHIlAI8H1nDjjRXgcA5fCACJO6/8B5Dm9NNXArC33t5eAFi5kJkAwOPhypcgIjwZIgv5zhYAcNl/ggF4ts1cuBKAtVfeSRkAqDVy5Xv4TO9b+Mw5XQAk1vzlJ3T95kre0nsjW158BTe+ZyZkTuc15wBArczhp7MAYGSEMgBQi/KD3LgWWHAOx3cBAGzhzhsrwEqOX5mhXC4DUGuktxeA004/HoAnwvE/Yffu3TwZu3ffyVtmAoDL/hMMwLON41/DqxuBq97Ca64cAWDSyJVvYeVrevnKld/h8AwAJBa+507+MvMjHP7emXznN6fTBAAkWLGShQBAgpmnc84M4MEHWQMA1OLGK7kKSB+/kpkAAOU7uXItwEzK/zielaf/hTUAwKQ1D64FTuM152QAeCJkmujq6uLJ6OpqIgMA/K/jzvfQJYI0vYc7AYD/Jgbg2UbmdH5z55958YJRzj+jGWlayPHHr6Srq4vjv9PEdx68kdcsBIBJsIaPvOSnjB53DsdnAAC2sGYNpA8/nJkAQAIW8p6PHAZ7/sGNWwCg1pY1dwJpTj9+IQAJenvpBeB8fnLja/jHla9hIQCQgDu58h+QfvF7OCcDAC57PFCmDMAWensB4L+JAfh3YOFL+MsapTS8m91rbuQvf7mRLb29PHjlVzinCwBq8eBv+M1WoKuLLgCAkRu58qE0r3nJ4QDU6nrLd3hz41p+8o8tANSa+ZY72b27l7+8pAuABDPfw53Du9k9XGLNX17DwgwATOLG3/Cbygq+8pXTyQAALns8HP4Teod3M9z7D87pAoD/Jgbg3ynT1EVXVxddXU1kAIAnwp038iAAI/zjLe/hquN+wmeOB4BacDjf+cur6f3IR/jHCABMItNEV1cTGQBgUqapi66mDAC1oJfffOanLPz2X3jPTABw2b+SaeqiKQMA/20MwH8DVn6Ef3z4MNJbv8oB0kSTNPOWkc9wxz9eQxcAsLfM6b/hzq+s4S1vuZIRAODpWPOd0/lI1xXc+J6FALjsf50B+G8ATRz+lTspq1Ia3kKvKr1XvofDmwDg8Sx8z53cePhnWPmafzACADwVa35zOi+58SM8+JfTaQIAXPa/zgD8t8k0NZEBAP4VyLDwPXfy4EdmMlIGgCcLRmDlT7jzHy+hCwD4X0R5hN41N/KPf/yDf1y5hhEAyqy58S985yPf4cotZQBcYAD+P2hauJKZGQB4sqCJhStnkgEA/lcxsoYbf/MZXvP85/P8cz7ClWtu5C0zs6w85zW896vv5YxZr+FKAOD/OwPgsv8P6Dqcl7zlHGYCzBzhJ8e/hfJ3dlMeuZF3NwL00tsLAP/fGQCX/X/Bg3fyEMDaB+Er/+A353RBeQtrRoEZh7OyCwD+vzMALvv/4sE7bwRgxpv/wT9esxAAHryRG4H04cezEAD4/84AuOz/A+jlwTv3AIfxkc8cTxMAsObGG6kAh5++kgwA8P+dAXDZ/wdwJ1feBDQezsouAIBe7rxyLbCAc47vAsAFBsBl/x/w4J3cCKRPP52VAAA8yJU3AenjWTmzTLkMAP/fGQCX/X+w5cYr2QOsPH4lGQCAB2/kRoCFTWx5y0pWvudGRgCA/88MgMv+P1hz50PADI4/vAuABL297AF46Df8pOk73PmT42kCAP4/MwAu+//g9N8Ms3v3g3xmJQAkOP0nDO/ezXCplzu/cjpNAMD/dwbAZf8fkGmiq6uJDACQgAxNXV00ZQDAFQbAZS77/8gAuMxl/x8ZAJe57P8jA+Ayl/1/ZABc5rL/jwyAy1z2/9H/AQSHrQj7gLvhAAAAAElFTkSuQmCC;clipPath=inset(0% 57.78% 0% 7.22%);" parent="1" vertex="1">
          <mxGeometry x="957.6299999999999" y="527.5" width="45" height="40" as="geometry" />
        </mxCell>
        <mxCell id="lMV4DP2rYy61IQfFI9Z5-73" value="" style="shape=image;verticalLabelPosition=bottom;labelBackgroundColor=default;verticalAlign=top;aspect=fixed;imageAspect=0;image=data:image/png,iVBORw0KGgoAAAANSUhEUgAAALcAAAA8CAYAAAAkGSuEAAAABWZkRUNSJJPjAOWrYpkAABGISURBVHgB5cRjtCVn2oDh+3mravPY57RtxLYzM0kGydi2bdu2EYxi22bbPH2szap6n2/Vj7PWXr06mWimZ773x3Whquoyl/1/ZwBc5rL/7wyAy1z2/50BcJnL/r8zAC5zWS1G7uQnf3kQgKeCLX/hJ1eOAPDfxgC47H8RlBnp7aW3t5fekTIAzwRrfsPxh3+HrtNXAvBUMPN0Fv7jeA7/zhrKAMB/CwPgsv8lMMKd3zmHmTOP5y1f+Qpf+chrOL45i3Sdw1+2AMBTxZrvsHLRX3jNnX/hnCYAeCqgieN/ciOfufN4Dv/OGgD+WxgAl/2vgBGufMlMjvjNQv7y4J385Tvf4Tu/uZI1D3yYGXtu5M5eAHgq4E7ecvh76frzX3hNEwA8HdDE6T/5CQs/cjgvuXIEgP8GBsBl/yu48zO85PwyL/7KZzi8CQASrDyH09MrWTkTAJ6KO99yOj8tv5mPvKQJgGeCpnP4zHuaOP8lH+FOAGB/MwAu+1+x5sYrGaVCUyYDwCQ4nO/0/oOXdAHAk0Xvb/jIT0dJv+Y1HA8APFMLX/ISOkd/ynt+0gvA/mYAXPa/IpMBgJ9+5jf0AgCTMk1NZACAJ6v3Hz/hJuCc0w8HYG/lkV7W3PgP/vGPf3DlmhEAKK/hxr98h49850q2lAGgFiuP53jgrq98hzUAwP5kAFz2v2LmOW9hBcBNr6V74Xu4cgQAng7o5cq/3AUsYOVCANjbyJob+c1nXsPzn/98zvnIlay58S3MzK7knNe8l6++9wxmveZKAGrBQg5fAGy9kiu3AMD+ZABc9r+Cme/hxhvezAyAtd/ljGah6yV/YQsA8FTAg9x4EwBkMgCwt67DX8JbzpkJwMyRn3D8W8p8Z3eZkRvfTSNAby+9AMAk6KJrJsBD3LkGAPYnA+Cy/yVNx/+ELcN38OMXLwBgz/kvZdbxv6EXAHiy6O1lCwAZAB7Pg3c+BMDaB+Er//gN53RBecsaRoEZh6+kCwCYBBmamgDgwTVbANifDIDL/tfQdDhv+csahq94MY0AN72W91wJAE8W5RF6AVjIzJkAsDd4kDtvBJjBm//xD16zEAAevPFGIM3hxy8E4L+ZAXDZ/6qm03/DT04DgN7eXgCgl3985DW85jWv4TWveQ9/2QJb/vISjj/+I9w4AgAJurqYCcCDbNkCAHuj90Hu3AMc9hE+c3wTALCGG2+sAIdz+soMAI8nAwDsTwbAZf/tePA3vOcfWwCoBRmamgDSdHU1AXDnW1byljUrObx8Jb/9xwhNXUDvg9x001d5z2+2AJAgs5CVnQDweLjzSm4CGg9fSRcAQO+dXLkWWHAOx3cBQC3opbcXAFYunAnA/mQAXPbfjt4r+e5XrqQXAJgEW1jzIDDjPXzk9AyUr+QnD76HK3+zkBtv7OLbd/6G0zMw85y3sAAAmAQrOf54gBF6RwBgbw/eeSOQ5vTTVwKQ4MEruQlIH7+SmeUyZQBgEozQ2wtwGqcfDwD7kwH4/2jkzp/wlwcB4Kko3/kbfrOmDMB/A8rAXR/hM3cCwKSRf3yEz/Qex6+v/AorATKn85s7X8OD55zBna/5C+9ZCACTVi6cCcCk4885G9jDg2vKANSCLdx45R5gJcevzACQePDGGwFY2LSFt6xcyXtuHAFgEqzhwbXAaa/hnAwA7E8GYH8pj/TS29tLonekDMCzYc1vjufw73Rx+koAeCoyhx8O7zmc1/xjBID9bcuWNcAoPz1CaFp5Oq95zWs4fWUXx/9kJr9ZcyOvWQgAifJf3sJrb0pz+jkLAUiw5kHWchzHrwSASZmXvIc3p+Gqf9wIQC1Yw50PATOO5/AuAEj09u4B4KHf/ISm79zJT45vAmASd17JP0jz4vecQwYA2J8MwH8SjPDgb17Dyq4uFp7zHj7ykY/wkfe8hJXNWSSzkpd85x+sGQGAp2PNd1ay6C+v4c6/nEMTAPBUwEJec+VfWPmZhbzkyhEA9qeZ73kQVaU0vJs1V/6Gr3zlK/zlzl4evPIrnNMFAAko84/f/BOYycIuAEjceeWVcNhLOL0LACbB8XzmJ8fBP37DlWUAmASn85vh3ex+8DOsBAASp/9kmN27hyn13slXTm8CoNaNv/kNlRVf4SunZwDY3wzAfwq9/+A1M5s5/S8r+cmaXrbc+Bd+85vf8Ju/3EivDvP3c7Zw/nufz1v+0QvAU8Wdb+Hw93bx57+8hiYA4OmAhbznL+/hwTOO5ztrAGB/yzR10dXVRaIpAwD7Amu58s4RAMprvsJbvlvmzd95C10AQK2u1/yGby88n/d8Zw0AtTJNXXQ1ZQCYRKaJrq4mMgBALXp/w2d+upBv/+U9zAQA9jcD8J/Amu+wsvv53Hj6Fay58j0c3gQAk6CJc37zE84GAJ4quJO3nP5Tym/+CC9pAoBngoXv4TNnP8R73/IbegGA/2aQ4SW/+TMv7oSrXtpMpilDdtFvWPn3NfzkcADYG8zkPTdewcrvvITvrAGApwPW8J3TP0LXFTfynoUA8N/AAPy7MXIlLzn8vTy04ttc+ZPTaQIA9kbmJbzmxWkWLuwC4Kno/c1H+Olomte85ngAninIcM5LToOb3sJnbgSA/3Z0vYS/9CpaGmbLlhFU1/Cbc7oAeDw0nc5f1nyGB08/nO+sKQPwVMAafnP6S7jxIw/yl9ObAPhvYQD+naDMlW85h/NHZ/Dh37yHhQDA4zn9J71853AAeLKgl3/85CbgHE4/HAD2Vh7ZwoNX/oN//OMf3NkLAOXeB7nyJx/hI795kBEAoFbm8NNZQIWffucvlAGA/wVkmuhqygDwZNB0Dr/Z8g+OL5cBeCoYgZU/uZN/vKQLgP8mBuDfid7f8JnzK7DgPbxlJQA8kUxTExkA4Mmi90r+chewYCULAYBaMMKWO6/kO295Ps9//vN5yXceZM1vjqer+3he8tav8tXXHsDh39kCQC1mLmQlwD+v5EYA4PFQXsON//gH//jHP3gyHuwFgP8W0MXKlU0APBU0LWTlzAwA/20MwL/Tlr98h7uAGeccz0wA4NnGgzdyEwAZMgBALWhi4elv4SXHA6TpuvM1HP+bc7hyeIQtvz4NgN4tvQDUgi5mdgLcyZotAPB46L2Rr7zlLbzlLW/hyfjNGgBw2b+bAfh3gTJ3XrkWSLNyZRcAe4MH+clrXsNrXvMaJr3mKzcyAgA8Gb29WwAgAwD7Amt48E6ACndtOZy//OM9HN4EW9Y8CKQ5/vCZANSCJrqaANZy5xoAeDzMfAtX9vbS29vLk/Gd4wHAZf9uBuDfBXrp3QJQIdPUBcDeYCEv+cpneAlX8tvf/pa/bFnJe95yOE0AwJNRHukFgIUzmQkA7I3yg9y4Fmg8jl9f+ROObwLo5cE79wAzOf7wLgD+m6xatYoTTjiB/2X33XcfAPuDAfh3IgMAW7b0ArA3yNDUNZOuLoA0p7/lJaxsygDwZHV1zQSAB7ewBQDYGw/eyI1A+iWf4TULAQDu5MqbgMbTOXwmADyeDADwn9TQ0MBxxx3H/7Lm5mYA9gcD8O8CMzn+9E4A7vrHjZQBgL1BLw/euQfoYuHCLgASjNzJT97zGl7zmtfwmtd8hzvLZe78yvEc/5K/sAYASGQWrqQTAHg8a268kQpw+OELAUhw55X8A0iffjorAYBa0MuaLQArWLkQAB4PW77DQhFEhCfjJVcCwBOZOnUqn/nMZ/hfNnv2bAD2BwPw77TyPV/hOICr3sJ77gSAvcGD3HgTkD6c4xcCAPTym3OO5zecTtOa3/LbB6ErAyMP3slN57+Ur1wJAAlWHs/xACO9jAAAtaDMgzeuBRZwzvFdACS23HkjFWDl8SvJlMuUAYBJ0MtIBeg8neNnAsDjYeZbuHP3bnbv3s2T8ZPjAcBl/24G4N+Jrtfwm18fRyOj/PSIlXxlTRmASVBmy29+wj+ABeccT1MZAFjzF37S9RuufEsvN255MVfc+B5mkuH015wDQC04nnPOBvY8yJoyANSCG7nyKiB9PCtnAgCUufPKtQDMLP+D41eezl/WAMAk1qzhQaDzNS9hJQDweCBDU1cXXV1dPBlNGQBw2b+bAfh3m/maG9my+te8esUaProoS2bm8bzkNa/hNS85npldMznnLwv5zeoSa/7yFg5vAgAWvoc7/zKTjxz+XmZ+5zec3gQACVjByoUAkIAML3nPm0lzFf+4EQBqsWUNdwLp049nIQAAvfT2AsD5P7mR1/zjSl6zEAAm9d55JWtZwEfeshKA/w9ghCtfs5Cu1/yDMgDw/5UB+E9oWvgafvNgGS0Ns+XOv/Cdr3yFr/zkSrb09vLglV/hnIUZAGqt+chL+OnocZxzfAaAxJY1ayB9OIfPBIBJHP8ZfnIc/OM3V1IGACYx8y3cuXs3vX95CV0AAMzkPXcOs3v3MKU1f+E1CzMATIJe/vGTm2h89Xd4y0wA+P9g5C8v4YzfrmXPb5/P8T/ZAsD/VwbgP4lME11dXSS6mjIA7As8yG9+sxXooqsLAGCEG698iPRrXsLhAMAk6OI1v/k2C89/D99ZAwCTIENTVxdNGQCYRKaJrq4mMgBALe78DB9Z82L+8p3TyQAA/+tY8x2Of+mDnPbr1az+9XGsees5fGcNAPx/ZAD+m8Gd3PggAIz84y2856rj+Mlnjgdgb8x8DzdesZLvvOQ7rAEAng5GruQl59zJZ+78C6c3AcD/Oihz55VbeM/qLVz5moUsfM2N9K5+D1uuvJMyAPD/jQH4bwQr+cg/Psxh6a189QChqUlofssIn7njH7ymCwD2pen0v7DmMw9y+uHfYU0ZAJ4KRm7kLcd/hpn/uJH3LASA/w8gw+Hv+Q6vWZgBIJFZ+Bq+857DyQAA/98YgP9WTYd/hTvLipaG2dKraO+VvOfwJgCeSNM5v2HLP46nXAaAp4JyE2+58U6+cngTAP/flEd66e3tpXekDMD/Zwbgvx2ZJpoyAPBk0bWSlU0A8FTQtZKVTQDw/0nvP17Dyq6VnPOer/CVr7yHcxZmkcxKPnJnGYD/jwyAy1yw5jsr6X7NCB958EGu/M13+M53/sKda/7MaZWHuHPNCAD/HxkAl/1/R+9veMt7H2LBZ77DS7oAIEHT8bzkuDQLF3YB8P+RAXDZ/3fceSU3AU2ZDACToIuX/GMLX1kJAP8fGQCX/X9HBgDu+shnuBMAmJRp6qIpAwD/HxkAl/1/x/Gv4dWNwOhPOaLrdH6ypgyACwyAy/6/I3M6v7nz1xzXCOy5ircuypJZ+RHuLAPA/2cGwGUuYOFruLF3M39/92F0ApWHvsoRXW/hTgDg/ysD4DJXkJnJOd+5k97V32YFwOhPec13tgDw/5UBcJlrWPgefvPhTgC2rOkFINH7j4/wmte8hsR7/rIFtvyFlxx/PB+5cQSA/0UGwGX/X9F7JV/5yZ2UAYBaTV1NAMxc2AUAd76FlW9Zw8rDy1z5238w0tQF9PLgTTfx1ff8hi0AwP8aA+Cy/68or+E3b/0NdwIAtdbcuRYaz+YzL5kJlLnyJw/ynit/w8Ibb6Tr23fym9MzMPMc3rIAAP5XGQCX/X9FuQz8lM/8pheASeU1X+Ej58/gzf/4DS/pAshw+m/u5DUPnsMZd76Gv7xnIQCTWLmQmQDA/xoD4LL/r9iyhrXATa/tJjPzeF7ymtfwkuNnsvA1a3jLHQ/yk+ObAEhQ/gtvee1NpE8/h4UAAKzhwbVw3PErAfhfZABc9v8Vp/8GVUVLw2y58y985ytf4SdXbmHLnb/hLYc3ATCp/I/f8E9g5sIuABLceSVXchgvOb0LgP9FBsBl/9+RaaKrq4tEUwYAHs/aK+9kBKC8hq+85buU3/wd3tIFAP+LDIDLXDYp85Lf8OcXd8JVL6U500Qmu4jfrPw7a35yOAD/qwyAy1w2Cbp4yV96US0xvGULI6qs+c05dAEA/6sMgMtctjfI0NTVRAYA+F9nAFzmsv/vDIDLXPb/3f8BGsC+E+svtHQAAAAASUVORK5CYII=;clipPath=inset(11.67% 56.01% 15% 8.47%);" parent="1" vertex="1">
          <mxGeometry x="957.6299999999999" y="567.5" width="49.54" height="33.54" as="geometry" />
        </mxCell>
        <mxCell id="lMV4DP2rYy61IQfFI9Z5-87" value="" style="shape=image;verticalLabelPosition=bottom;labelBackgroundColor=default;verticalAlign=top;aspect=fixed;imageAspect=0;image=data:image/png,iVBORw0KGgoAAAANSUhEUgAAALcAAAA8CAYAAAAkGSuEAAAABWZkRUNSJJPjAOWrYpkAABGISURBVHgB5cRjtCVn2oDh+3mravPY57RtxLYzM0kGydi2bdu2EYxi22bbPH2szap6n2/Vj7PWXr06mWimZ773x3Whquoyl/1/ZwBc5rL/7wyAy1z2/50BcJnL/r8zAC5zWS1G7uQnf3kQgKeCLX/hJ1eOAPDfxgC47H8RlBnp7aW3t5fekTIAzwRrfsPxh3+HrtNXAvBUMPN0Fv7jeA7/zhrKAMB/CwPgsv8lMMKd3zmHmTOP5y1f+Qpf+chrOL45i3Sdw1+2AMBTxZrvsHLRX3jNnX/hnCYAeCqgieN/ciOfufN4Dv/OGgD+WxgAl/2vgBGufMlMjvjNQv7y4J385Tvf4Tu/uZI1D3yYGXtu5M5eAHgq4E7ecvh76frzX3hNEwA8HdDE6T/5CQs/cjgvuXIEgP8GBsBl/yu48zO85PwyL/7KZzi8CQASrDyH09MrWTkTAJ6KO99yOj8tv5mPvKQJgGeCpnP4zHuaOP8lH+FOAGB/MwAu+1+x5sYrGaVCUyYDwCQ4nO/0/oOXdAHAk0Xvb/jIT0dJv+Y1HA8APFMLX/ISOkd/ynt+0gvA/mYAXPa/IpMBgJ9+5jf0AgCTMk1NZACAJ6v3Hz/hJuCc0w8HYG/lkV7W3PgP/vGPf3DlmhEAKK/hxr98h49850q2lAGgFiuP53jgrq98hzUAwP5kAFz2v2LmOW9hBcBNr6V74Xu4cgQAng7o5cq/3AUsYOVCANjbyJob+c1nXsPzn/98zvnIlay58S3MzK7knNe8l6++9wxmveZKAGrBQg5fAGy9kiu3AMD+ZABc9r+Cme/hxhvezAyAtd/ljGah6yV/YQsA8FTAg9x4EwBkMgCwt67DX8JbzpkJwMyRn3D8W8p8Z3eZkRvfTSNAby+9AMAk6KJrJsBD3LkGAPYnA+Cy/yVNx/+ELcN38OMXLwBgz/kvZdbxv6EXAHiy6O1lCwAZAB7Pg3c+BMDaB+Er//gN53RBecsaRoEZh6+kCwCYBBmamgDgwTVbANifDIDL/tfQdDhv+csahq94MY0AN72W91wJAE8W5RF6AVjIzJkAsDd4kDtvBJjBm//xD16zEAAevPFGIM3hxy8E4L+ZAXDZ/6qm03/DT04DgN7eXgCgl3985DW85jWv4TWveQ9/2QJb/vISjj/+I9w4AgAJurqYCcCDbNkCAHuj90Hu3AMc9hE+c3wTALCGG2+sAIdz+soMAI8nAwDsTwbAZf/tePA3vOcfWwCoBRmamgDSdHU1AXDnW1byljUrObx8Jb/9xwhNXUDvg9x001d5z2+2AJAgs5CVnQDweLjzSm4CGg9fSRcAQO+dXLkWWHAOx3cBQC3opbcXAFYunAnA/mQAXPbfjt4r+e5XrqQXAJgEW1jzIDDjPXzk9AyUr+QnD76HK3+zkBtv7OLbd/6G0zMw85y3sAAAmAQrOf54gBF6RwBgbw/eeSOQ5vTTVwKQ4MEruQlIH7+SmeUyZQBgEozQ2wtwGqcfDwD7kwH4/2jkzp/wlwcB4Kko3/kbfrOmDMB/A8rAXR/hM3cCwKSRf3yEz/Qex6+v/AorATKn85s7X8OD55zBna/5C+9ZCACTVi6cCcCk4885G9jDg2vKANSCLdx45R5gJcevzACQePDGGwFY2LSFt6xcyXtuHAFgEqzhwbXAaa/hnAwA7E8GYH8pj/TS29tLonekDMCzYc1vjufw73Rx+koAeCoyhx8O7zmc1/xjBID9bcuWNcAoPz1CaFp5Oq95zWs4fWUXx/9kJr9ZcyOvWQgAifJf3sJrb0pz+jkLAUiw5kHWchzHrwSASZmXvIc3p+Gqf9wIQC1Yw50PATOO5/AuAEj09u4B4KHf/ISm79zJT45vAmASd17JP0jz4vecQwYA2J8MwH8SjPDgb17Dyq4uFp7zHj7ykY/wkfe8hJXNWSSzkpd85x+sGQGAp2PNd1ay6C+v4c6/nEMTAPBUwEJec+VfWPmZhbzkyhEA9qeZ73kQVaU0vJs1V/6Gr3zlK/zlzl4evPIrnNMFAAko84/f/BOYycIuAEjceeWVcNhLOL0LACbB8XzmJ8fBP37DlWUAmASn85vh3ex+8DOsBAASp/9kmN27hyn13slXTm8CoNaNv/kNlRVf4SunZwDY3wzAfwq9/+A1M5s5/S8r+cmaXrbc+Bd+85vf8Ju/3EivDvP3c7Zw/nufz1v+0QvAU8Wdb+Hw93bx57+8hiYA4OmAhbznL+/hwTOO5ztrAGB/yzR10dXVRaIpAwD7Amu58s4RAMprvsJbvlvmzd95C10AQK2u1/yGby88n/d8Zw0AtTJNXXQ1ZQCYRKaJrq4mMgBALXp/w2d+upBv/+U9zAQA9jcD8J/Amu+wsvv53Hj6Fay58j0c3gQAk6CJc37zE84GAJ4quJO3nP5Tym/+CC9pAoBngoXv4TNnP8R73/IbegGA/2aQ4SW/+TMv7oSrXtpMpilDdtFvWPn3NfzkcADYG8zkPTdewcrvvITvrAGApwPW8J3TP0LXFTfynoUA8N/AAPy7MXIlLzn8vTy04ttc+ZPTaQIA9kbmJbzmxWkWLuwC4Kno/c1H+Olomte85ngAninIcM5LToOb3sJnbgSA/3Z0vYS/9CpaGmbLlhFU1/Cbc7oAeDw0nc5f1nyGB08/nO+sKQPwVMAafnP6S7jxIw/yl9ObAPhvYQD+naDMlW85h/NHZ/Dh37yHhQDA4zn9J71853AAeLKgl3/85CbgHE4/HAD2Vh7ZwoNX/oN//OMf3NkLAOXeB7nyJx/hI795kBEAoFbm8NNZQIWffucvlAGA/wVkmuhqygDwZNB0Dr/Z8g+OL5cBeCoYgZU/uZN/vKQLgP8mBuDfid7f8JnzK7DgPbxlJQA8kUxTExkA4Mmi90r+chewYCULAYBaMMKWO6/kO295Ps9//vN5yXceZM1vjqer+3he8tav8tXXHsDh39kCQC1mLmQlwD+v5EYA4PFQXsON//gH//jHP3gyHuwFgP8W0MXKlU0APBU0LWTlzAwA/20MwL/Tlr98h7uAGeccz0wA4NnGgzdyEwAZMgBALWhi4elv4SXHA6TpuvM1HP+bc7hyeIQtvz4NgN4tvQDUgi5mdgLcyZotAPB46L2Rr7zlLbzlLW/hyfjNGgBw2b+bAfh3gTJ3XrkWSLNyZRcAe4MH+clrXsNrXvMaJr3mKzcyAgA8Gb29WwAgAwD7Amt48E6ACndtOZy//OM9HN4EW9Y8CKQ5/vCZANSCJrqaANZy5xoAeDzMfAtX9vbS29vLk/Gd4wHAZf9uBuDfBXrp3QJQIdPUBcDeYCEv+cpneAlX8tvf/pa/bFnJe95yOE0AwJNRHukFgIUzmQkA7I3yg9y4Fmg8jl9f+ROObwLo5cE79wAzOf7wLgD+m6xatYoTTjiB/2X33XcfAPuDAfh3IgMAW7b0ArA3yNDUNZOuLoA0p7/lJaxsygDwZHV1zQSAB7ewBQDYGw/eyI1A+iWf4TULAQDu5MqbgMbTOXwmADyeDADwn9TQ0MBxxx3H/7Lm5mYA9gcD8O8CMzn+9E4A7vrHjZQBgL1BLw/euQfoYuHCLgASjNzJT97zGl7zmtfwmtd8hzvLZe78yvEc/5K/sAYASGQWrqQTAHg8a268kQpw+OELAUhw55X8A0iffjorAYBa0MuaLQArWLkQAB4PW77DQhFEhCfjJVcCwBOZOnUqn/nMZ/hfNnv2bAD2BwPw77TyPV/hOICr3sJ77gSAvcGD3HgTkD6c4xcCAPTym3OO5zecTtOa3/LbB6ErAyMP3slN57+Ur1wJAAlWHs/xACO9jAAAtaDMgzeuBRZwzvFdACS23HkjFWDl8SvJlMuUAYBJ0MtIBeg8neNnAsDjYeZbuHP3bnbv3s2T8ZPjAcBl/24G4N+Jrtfwm18fRyOj/PSIlXxlTRmASVBmy29+wj+ABeccT1MZAFjzF37S9RuufEsvN255MVfc+B5mkuH015wDQC04nnPOBvY8yJoyANSCG7nyKiB9PCtnAgCUufPKtQDMLP+D41eezl/WAMAk1qzhQaDzNS9hJQDweCBDU1cXXV1dPBlNGQBw2b+bAfh3m/maG9my+te8esUaProoS2bm8bzkNa/hNS85npldMznnLwv5zeoSa/7yFg5vAgAWvoc7/zKTjxz+XmZ+5zec3gQACVjByoUAkIAML3nPm0lzFf+4EQBqsWUNdwLp049nIQAAvfT2AsD5P7mR1/zjSl6zEAAm9d55JWtZwEfeshKA/w9ghCtfs5Cu1/yDMgDw/5UB+E9oWvgafvNgGS0Ns+XOv/Cdr3yFr/zkSrb09vLglV/hnIUZAGqt+chL+OnocZxzfAaAxJY1ayB9OIfPBIBJHP8ZfnIc/OM3V1IGACYx8y3cuXs3vX95CV0AAMzkPXcOs3v3MKU1f+E1CzMATIJe/vGTm2h89Xd4y0wA+P9g5C8v4YzfrmXPb5/P8T/ZAsD/VwbgP4lME11dXSS6mjIA7As8yG9+sxXooqsLAGCEG698iPRrXsLhAMAk6OI1v/k2C89/D99ZAwCTIENTVxdNGQCYRKaJrq4mMgBALe78DB9Z82L+8p3TyQAA/+tY8x2Of+mDnPbr1az+9XGsees5fGcNAPx/ZAD+m8Gd3PggAIz84y2856rj+Mlnjgdgb8x8DzdesZLvvOQ7rAEAng5GruQl59zJZ+78C6c3AcD/Oihz55VbeM/qLVz5moUsfM2N9K5+D1uuvJMyAPD/jQH4bwQr+cg/Psxh6a189QChqUlofssIn7njH7ymCwD2pen0v7DmMw9y+uHfYU0ZAJ4KRm7kLcd/hpn/uJH3LASA/w8gw+Hv+Q6vWZgBIJFZ+Bq+857DyQAA/98YgP9WTYd/hTvLipaG2dKraO+VvOfwJgCeSNM5v2HLP46nXAaAp4JyE2+58U6+cngTAP/flEd66e3tpXekDMD/Zwbgvx2ZJpoyAPBk0bWSlU0A8FTQtZKVTQDw/0nvP17Dyq6VnPOer/CVr7yHcxZmkcxKPnJnGYD/jwyAy1yw5jsr6X7NCB958EGu/M13+M53/sKda/7MaZWHuHPNCAD/HxkAl/1/R+9veMt7H2LBZ77DS7oAIEHT8bzkuDQLF3YB8P+RAXDZ/3fceSU3AU2ZDACToIuX/GMLX1kJAP8fGQCX/X9HBgDu+shnuBMAmJRp6qIpAwD/HxkAl/1/x/Gv4dWNwOhPOaLrdH6ypgyACwyAy/6/I3M6v7nz1xzXCOy5ircuypJZ+RHuLAPA/2cGwGUuYOFruLF3M39/92F0ApWHvsoRXW/hTgDg/ysD4DJXkJnJOd+5k97V32YFwOhPec13tgDw/5UBcJlrWPgefvPhTgC2rOkFINH7j4/wmte8hsR7/rIFtvyFlxx/PB+5cQSA/0UGwGX/X9F7JV/5yZ2UAYBaTV1NAMxc2AUAd76FlW9Zw8rDy1z5238w0tQF9PLgTTfx1ff8hi0AwP8aA+Cy/68or+E3b/0NdwIAtdbcuRYaz+YzL5kJlLnyJw/ynit/w8Ibb6Tr23fym9MzMPMc3rIAAP5XGQCX/X9FuQz8lM/8pheASeU1X+Ej58/gzf/4DS/pAshw+m/u5DUPnsMZd76Gv7xnIQCTWLmQmQDA/xoD4LL/r9iyhrXATa/tJjPzeF7ymtfwkuNnsvA1a3jLHQ/yk+ObAEhQ/gtvee1NpE8/h4UAAKzhwbVw3PErAfhfZABc9v8Vp/8GVUVLw2y58y985ytf4SdXbmHLnb/hLYc3ATCp/I/f8E9g5sIuABLceSVXchgvOb0LgP9FBsBl/9+RaaKrq4tEUwYAHs/aK+9kBKC8hq+85buU3/wd3tIFAP+LDIDLXDYp85Lf8OcXd8JVL6U500Qmu4jfrPw7a35yOAD/qwyAy1w2Cbp4yV96US0xvGULI6qs+c05dAEA/6sMgMtctjfI0NTVRAYA+F9nAFzmsv/vDIDLXPb/3f8BGsC+E+svtHQAAAAASUVORK5CYII=;clipPath=inset(0% 15.57% 58.33% 54.37%);" parent="1" vertex="1">
          <mxGeometry x="886.25" y="579.44" width="36.5" height="16.59" as="geometry" />
        </mxCell>
        <mxCell id="n0JWKjeLG8hHYBPUIH6i-1" value="" style="shape=image;verticalLabelPosition=bottom;labelBackgroundColor=default;verticalAlign=top;aspect=fixed;imageAspect=0;image=data:image/png,iVBORw0KGgoAAAANSUhEUgAAALQAAAA4CAYAAABUv9KRAAAABWZkRUNSJJPjAOWrYpkAAA6bSURBVHgB5cRjtCVn2oDh+3mravPY57RtxLYzM0kGydi2bdu2EYxi22bbPH2szap6n2/Vj7PWXr06mWimZ773x3Whquoyl/1/ZABc5rL/jwyAy1z2/5EBcNn/Cigz0ttLb28vvSNlAFz2eAyAy/7bUd7CP95zPDO7DuclH/kIH/nIR3jN8U2IdHH4R25kBABwWS0D4LL/ZuU1P+H4rlm8Z8truHLLg1z5m9/wm9/8hisfLLP7z4ez5qsn0Hz8b+gFAFw2yQC47L8Va77D4YveyoMrf82V/3gNCzMAMKnrJX/hLy9Ow02v5SW/6QXAZZMMgMv+G8GDfOT09/JQ49n85C+vYSEAUAsynP6alwBw01f+whYAwGUJA+Cy/0ZbvvMSvroVZrzlM7ykCwD2hYUrWQCw9kbuLAOAyxIGwGX/beBOvvKRtcAC3vOWlQD8KzBCeQQAXJYwAC77b8Odv+E3FaDxdA6fCQCPh5FeRgDSC5nZBQCTylv+wUe+ciW9AIArDIDL/ttsufNOKgArVzITAHg85TUPsgfg8MNZCACUt1zJR87pIjvr+Xz1QegCAFxhAFz236Z3zRoA0gsX0gUAPJ4b/3EVACvOOZ4uANbwj3/08pLvfIezAQDXGACX/bfJNDUBUBkZAeDxUP4LPzkfaDybj7xkJgCwkJe85zWsnNlEBgD4V0bu/Anvec1reM1rXsNrvnMn5fKdfOX443nJX9YA8L/GAPynwAhXvmYhXa/5B2UAwGX7snDlSgC480YeBAD2ZctPPsM/gRWf+Qov6QKAp4re33DO8b+B05tY89vf8iBdZBjhwTtv4vyXfoUrAYD/JQbgP2XkLy/hjN+uZc9vn8/xP9kCgMv2JXPOazgbYOt3+MmNALA31nyHc967lsbjfs1f3rMQgKdjzV9+QtdvruQtvTey5cVXcON7ZkLmdF5zDgD8LzIA/wms+Q7Hv/RBTvv1alb/+jjWvPUcvrMGAFy2NzIv4TdXvJhGKvz0nHP4yxYAmDRy50c4fNF7Kb/4z9x542tYCAA8HQvfcyd/mfkRDn/vTL7zm9NpAgASrFjJQgDgf4kB+HeDMndeuYX3rN7Cla9ZyMLX3Ejv6vew5co7KQMALttb0+l/Ycsd3+bszD956Syh6/iX8JrXvIbTV3ax8C1beMkVm3nwLy9hIQDwdMEaPvKSnzJ63DkcnwEA2MKaNZA+/HBmAgD/SwzAvxtkOPw93+E1CzMAJDILX8N33nM4GQDgmer9x0+4shcAnizYwl9+ciUjAMB/k6bD38M/tmzmzy/uZE/vCF3Hv4ff3NlL74N/4T2nzyQDADwTPPgbfrMV6OqiCwBg5EaufCjNa15yOAD/awzA/zIY4ca3LOScNcdzfBcAPFkwk9MX/oPjD/8Oa8oA8N9i5M6PcHh2Fu8ZeQ9//s5XeM9LVtKVAYB/BcoA0NtLLwAAa/jLe17Daz7yD3oBgEnceSMPAjDCP97yHq467id85ngA+F9jAJ5tvVd+hZcc34WIkJCmlZz+mo9wZS8AJMp3/oTXnL4QEUEkw8rTX8NHruwF4MmCEa58yUxek/kNN35kIRkA4KloOv4n3PiZOzn+8O+wBgDY39b85ngWvuRBDn/3u1m55aO89IwD6M4KC1/yGx4sA0Bi5Mbf8I8tADDpwd+8hpcc/hrOB7jpPZzzktfwmweB3gf5zXd/y2+/+nw+ciUAsPIj/OPDh5He+lUOkCaapJm3jHyGO/7xGroAgP81BuDZ1nX6R/jLjTfy5RkAx/HrNQ9y5W++wuldAJDIHP4WfnPllXx7ARz24y08eOVv+MrpXQA8Wb2/OYcz7nwL//jO4WQAgKej6fSf8JOFH+Hwl1zJCACwv1C+k9/8ZSW/efBKvvOd73DlGmX331/NAmDt+a/lgKyQ6eqiq6uL43/TxOEzAWDSytf8hr/cOYKqojrCnX/5Da9ZCXS9hCt1mF8fB2UAAJo4/Ct3UlalNLyFXlV6r3wPhzcBwP8iA/DvQPlBbtwKzDiclV0AsDdYw4NrGzl8ZRcATwW9v+Elr72Jwz7yHlYCAE8XNHHOZ95D0/kv4SN3AsD+QuZwvnLldzi9CQASXef8hjVaYvUNf+fP33437/nMT/jLjVt48Dfn0AUA/CuUe7nxO+fwkfK3+czpAFAr09REBgD4X2YA/h148EZuBNKHH89CAGBvrHmQO9PHc/hMAHgq7vzMe7iJ43jLOV0APFMsfAkv6Rzlp+/5Cb0AwH8TyLDw+HN4yXu+w1fecg7HL8wA8GRRHoHj/8KWO9/DQgDg/yMD8O+w5c47qQArj19JBgDYG2seZO3M4zm8CwCeLLiR3/xmFBaczuFdAFALyoxseZAr//EP/vGPO+kFoEzvg1fyk498hN88OAJALVjJ8ccDd32F76wBgP9PaFrI8Su7yAAA/18ZgH+HNXc+BKRZubALgH158M4bSa9cSBcA8GRx51/4TQVYuZCFAEAtRrZw55Xf4S3Pfz7Pf/5L+M6Da/jN8V10H/8S3vrVr/LaAw7nO1sAoNbCwxcAW7nyyi0APBF6H+Qf//gHT8Y//nEja8oA4LL/BAPwbIM1PPggwOEcvhAA9ga9PHjnHlYev5IMAPBkbbnzTioAZADYG00LOf0tL+F4gHQXd77meH5zzpUMj2zh16cB9LKlFwBqdXXNBOChO9cA8ERY8xve8pa38GS85S1f4cZeAHDZf4IBeLZRfpAb1wKNK1nYBQB7gy3ceWcjh6/sAuCp6F2zBgAyALAvrHmQOwEqd7Hl8L/wj/ccThNbWPMgkD6ew2cCQK1MUxMAPLiGLQDA4+H479Db28uT0dt7JW+ZCQBP5LLLLuMzn/kM/01KpRIA/ysMwLONB2/kRiB9/OHMBAD2xpY7uZPjOXwmADwVIyMVABYsnAnAvpQfvJG1QONxv+bKnxxPE0Dvg9y5B5h5PId3AYDL/j8yAM+23jVrqAB0zaQLANhb743/4KHDz+H4LgBIjNz5E97zmtfwmte8htd8507K5Tv5yvHH85K/rAFgUtfMTgDWPrgFgH158MYbgTQv+cxrWAgAcOeV3AQ0nn44MwGAfSEDAP9pz3nOc/jMZz7Df5NsNgvA/woD8Gwrj/QCMHNhFwB7g17+8ZM7Oe0tp9MFAND7G845/jdwehNrfvtbHqSLDCM8eOdNnP/Sr3AlAJBYuHIlAI8H1nDjjRXgcA5fCACJO6/8B5Dm9NNXArC33t5eAFi5kJkAwOPhypcgIjwZIgv5zhYAcNl/ggF4ts1cuBKAtVfeSRkAqDVy5Xv4TO9b+Mw5XQAk1vzlJ3T95kre0nsjW158BTe+ZyZkTuc15wBArczhp7MAYGSEMgBQi/KD3LgWWHAOx3cBAGzhzhsrwEqOX5mhXC4DUGuktxeA004/HoAnwvE/Yffu3TwZu3ffyVtmAoDL/hMMwLON41/DqxuBq97Ca64cAWDSyJVvYeVrevnKld/h8AwAJBa+507+MvMjHP7emXznN6fTBAAkWLGShQBAgpmnc84M4MEHWQMA1OLGK7kKSB+/kpkAAOU7uXItwEzK/zielaf/hTUAwKQ1D64FTuM152QAeCJkmujq6uLJ6OpqIgMA/K/jzvfQJYI0vYc7AYD/Jgbg2UbmdH5z55958YJRzj+jGWlayPHHr6Srq4vjv9PEdx68kdcsBIBJsIaPvOSnjB53DsdnAAC2sGYNpA8/nJkAQAIW8p6PHAZ7/sGNWwCg1pY1dwJpTj9+IQAJenvpBeB8fnLja/jHla9hIQCQgDu58h+QfvF7OCcDAC57PFCmDMAWensB4L+JAfh3YOFL+MsapTS8m91rbuQvf7mRLb29PHjlVzinCwBq8eBv+M1WoKuLLgCAkRu58qE0r3nJ4QDU6nrLd3hz41p+8o8tANSa+ZY72b27l7+8pAuABDPfw53Du9k9XGLNX17DwgwATOLG3/Cbygq+8pXTyQAALns8HP4Teod3M9z7D87pAoD/Jgbg3ynT1EVXVxddXU1kAIAnwp038iAAI/zjLe/hquN+wmeOB4BacDjf+cur6f3IR/jHCABMItNEV1cTGQBgUqapi66mDAC1oJfffOanLPz2X3jPTABw2b+SaeqiKQMA/20MwH8DVn6Ef3z4MNJbv8oB0kSTNPOWkc9wxz9eQxcAsLfM6b/hzq+s4S1vuZIRAODpWPOd0/lI1xXc+J6FALjsf50B+G8ATRz+lTspq1Ia3kKvKr1XvofDmwDg8Sx8z53cePhnWPmafzACADwVa35zOi+58SM8+JfTaQIAXPa/zgD8t8k0NZEBAP4VyLDwPXfy4EdmMlIGgCcLRmDlT7jzHy+hCwD4X0R5hN41N/KPf/yDf1y5hhEAyqy58S985yPf4cotZQBcYAD+P2hauJKZGQB4sqCJhStnkgEA/lcxsoYbf/MZXvP85/P8cz7ClWtu5C0zs6w85zW896vv5YxZr+FKAOD/OwPgsv8P6Dqcl7zlHGYCzBzhJ8e/hfJ3dlMeuZF3NwL00tsLAP/fGQCX/X/Bg3fyEMDaB+Er/+A353RBeQtrRoEZh7OyCwD+vzMALvv/4sE7bwRgxpv/wT9esxAAHryRG4H04cezEAD4/84AuOz/A+jlwTv3AIfxkc8cTxMAsObGG6kAh5++kgwA8P+dAXDZ/wdwJ1feBDQezsouAIBe7rxyLbCAc47vAsAFBsBl/x/w4J3cCKRPP52VAAA8yJU3AenjWTmzTLkMAP/fGQCX/X+w5cYr2QOsPH4lGQCAB2/kRoCFTWx5y0pWvudGRgCA/88MgMv+P1hz50PADI4/vAuABL297AF46Df8pOk73PmT42kCAP4/MwAu+//g9N8Ms3v3g3xmJQAkOP0nDO/ezXCplzu/cjpNAMD/dwbAZf8fkGmiq6uJDACQgAxNXV00ZQDAFQbAZS77/8gAuMxl/x8ZAJe57P8jA+Ayl/1/ZABc5rL/jwyAy1z2/9H/AQSHrQj7gLvhAAAAAElFTkSuQmCC;clipPath=inset(0% 22.22% 55.36% 53.89%);" vertex="1" parent="1">
          <mxGeometry x="886.25" y="536.53" width="30" height="17.44" as="geometry" />
        </mxCell>
        <mxCell id="n0JWKjeLG8hHYBPUIH6i-2" value="" style="shape=image;verticalLabelPosition=bottom;labelBackgroundColor=default;verticalAlign=top;aspect=fixed;imageAspect=0;image=data:image/png,iVBORw0KGgoAAAANSUhEUgAAAN0AAABICAYAAAByb/DqAAAABWZkRUNSJJPjAOWrYpkAABfeSURBVHgB5cRjtCVn2oDh+3mravPY57RtxLYzM0kGydi2bdu2EYxi22bbPH2szap6n2/Vj7PWXr06mWimZ773x3Whquoyl7lsfzIALnOZy/YnA+Ayl7lsfzIALnOZy/YnA+Ayl7lsfzIALnOZy/YnA+Ayl7lsfzIALnPZ/4qRB3/DR15zOisXHs9L3vMdrtxSBuB/lQFwmcv+F/T+5RxmnvMg5/zkSh5c8w9OX/Nezph1ON/ZAgD/iwyAy1z23w7W8J2P/JNRMjRlAJp4zVteDDzEb/6xBYD/RQbAZS77bwcLec9f/s4V//gICwGA/w8MgMtctr+VR3rp7e2lt3eEMgCwt67Dz+H0lU0AJG688h/AcbznJTMB+F9kAFzmsv0Bymz5x3s4fmYXh7/kI3zkIx/hI685niYRug7/CDeOAMC+lO98D6/5aROvvuIfvKYLAP4XGQCXuew/jfIafnJ8F7Pes4XXXLmFB6/8Db/5zW/4zZUPUt79Zw5f81VOaD6e3/QCQC3WfIfDj/gHp9+wht+c3gTA/yoD4DKX/SfBGr5z+CLe+uBKfn3lP3jNwgwAk+h6CX/5y4tJcxOvfclv6AUAEqz5DisX/YbT73iQnxzfBMD/MgPgMpf9Jz34kdN570ONnP2Tv/CahQCwt8zpr+ElADd9hb9sAQBGruQlh3+GhVfcyFcObwKAK9/C6T/ZAsD/IgPgMpf9p7DlO7zkq1thxlv4zEu6ANgXWMjKBQBrufHOMlDmL685g/NnfoSPrCzT29tLb++DfOUjP6WcyQDwv8gAuMxl/yl3fuUjrAUWvOctrAQA/pWR8ghwI//4J/DQRzmgu5vu7m66uw/gow+lWbiwC4D/RQbAZS77T4A7+c1vKkAjpx8+E4DHAyP0jgCkWTizCzie35QUVaWWapmfHA4A/4sMgMtc9p/Alju5swKwkpUzAeDxUF7Dg3sADufwhQAZMhkA+P/EALjMZf8J9K5hDUB6IQu7AODxcOM/uApgxTkc3wUA/x8ZAJe57D+BTBNNAJURRgCAfYEyf/nJ+UAjZ3/kJcwEAP4/MgAuc9l/AgtXshKAO7nxQQDYF7b8hM/8E1jxGb7yki4AajFyJz95z294EAD4X2YAXOay/wQy5/CaswG28p2f3AjA3mAN3znnvaxtPI5f/+U9LAQAEow8yG9es5JM8xG89coRmgCA/2UGwGUu+0+ADC/5zRW8uBEqPz2Hc/6yBYBJjNzJRw5fxHvLL+bPd97IaxYCQAJGuPEvN9L1kZ/wngUA8P+BAXCZy/5TaDqdv2y5g2+fneGfL52FdB3PS17zGl5z+kq6Fr6FLS+5gs0P/oWXLASASdDE8W95D6cv7KILAPhXGLmTn7znNbzmNa/hNa/5DneWy9z5leM5/iV/YQ0AsL8ZgP8WrPkOx3cdzlfWAIDL/r+h6XDe848tbP7zi+nc08tI1/G85zd30tv7IH95z+nMzADAMwG9/Oac4/kNp9O05rf89kHoysDIg3dy0/kv5StXAsD+ZgD+G8CDfOT093LTnrv46OGv4cYyALjs/xNG7uQjh2eZ9Z4R3vPn7/CV97yElV0ZAJ4trPkLP+n6DVe+pZcbt7yYK258DzPJcPprzgHgv4UB2N9ghCtfcjxfzbybGzbfwJubfss5r7mSEQDAZf8fsOY3HL/wJTx4+Lt598otfPSlZ3BAdxZZ+BJ+82AZgAQjN/Kbf2wB4Olg4Xu48y8z+cjh72Xmd37D6U0AkIAVrFwIAPubAdjf2HIlV678C8NrvsPxM4/nJ1uG+cvKK7lyCwC47H8dlLnzN39h5W8e5MrvfIfvXLkG3f13Xr0AWHs+rz0gi2S66Orqouv439B0+EwAnq41H3kJPx09jnOOzwCQ2LJmDaQP5/CZALC/GYD9jZkv4TsfOZ0mAACaOP0j3+ElMwHAJSN3/oS/PAgAT0X5zt/wmzVlAP6bQIbDv3Il3zm9CYAEXefwmzVKafUN/P3P3+bd7/kMP/nLjWx58Dec0wUATwc8yG9+sxXooqsLAGCEG698iPRrXsLhAMD+ZgD+G1Aeobe3l8RIGQD+21Eeobe3l97eEcoAwDOx5jfHc/h3ujh9JQA8FZnDD4f3HM5r/jECwP+CzMLjOecl7+E7X3kL5xy/kAwAsDcoUwbYsoZeACAxcuNXeM1r3sNP7hwBYBLcyY0PAsDIP97Ce646jp985ngA/hsYgP2JkTv5zjkzmXn8W/jKV77CR15zPM1Zoeucv7AFAPhvQ+8/eM3KLlae8x6+8pWv8J5zFpKVDCs/cidlAOCpWvOdlSz6y2u48y/n0AQAPBWwkNdc+RdWfmYhL7lyBID/D3qv/AqvOf10ProWqPyUl5z+Gr5yZS8Aa/7xHX772+/y1rf8hi0ArOQj//gwh6W38tUDhKYmofktI3zmjn/wmi4A+G9gAPYXRq7kJTOP4DcL/8KDd/6F73znO/zmyjU88OEZ7LnxTnoBgP8mrPkOK7tfw8hHHuTBK3/Dd77zHf5y5xr+fFqFh+5cwwgA8FRw51s4/L1d/Pkvr6EJAHg6YCHv+ct7ePCM4/nOGgD4X9d1+kf4zZVbUFUSW678DR85vQuAw7/Ti97xbhrLAJBoOvwr3FlWtDTMll5Fe6/kPYc3AfDfwgDsL3d+5iWcX34xX/nM4TQBAImV55xOeuVKZgIA/y2gl9+85b08tOAzfOclXQAkoInjX3Ic6YUL6QIAniy4k7ec/lPKb/4IL2kCgGeChe/hM2c/xHvf8ht6AYD/r8pr/sFrXvMXzvnOa5gJAEwi00RTBgD+2xiA/QHWcOOVo1BpIpMBgEkc/h16//ESugCA/xZwJ1feBDRlyAAAk7pe8g+2fGUlAE9F728+wk9H07zmNccD8ExBhnNechrc9BY+cyMAPFmwhe8sFERewpUAwH+zkZEmPvJgL785vQmA/xUGYH+ADBkAfspnftMLwCTI0NSUAeC/CWQA4K6P8Jk7AWASmSa6mjIAPFnQyz9+chNwDqcfDgB7K49s4cEr/8E//vEP7uwFgHLvg1z5k4/wkd88yAgAUCtz+OksoMJPv/MXygDA/0ddhx/PwgwA/C8xAPsDzOSct6wA4KbXdrPwPVcyAgA8W3of/Af/+Mc/eDL+ceMaygDA44Hjec2rG4FRfnpEF6f/ZA1lAODpoPdK/nIXsGAlCwGAWjDCljuv5DtveT7Pf/7zecl3HmTNb46nq/t4XvLWr/LV1x7A4d/ZAkAtZi5kJcA/r+RGAMBl/20MwP4y8z03csObZwCw9rtn0CxdvOQvWwB4Nqz5zVt4y1vewpPxlq/cSC8A8Hggw+m/uZNfH9cI7OGqty4im1nJR+4sA/BU8eCN3ARAhgwAUAuaWHj6W3jJ8QBpuu58Dcf/5hyuHB5hy69PA6B3Sy8AtaCLmZ0Ad7JmCwC47L+NAdhfoInjf7KF4Tt+zIsXAOzh/JfO4vjf9ALwTB3/nV56e3t5MnqvfAszAYAnAgt5zY29bP77uzmsE6g8xFeP6OItdwLAU9HbuwUAMgCwL7CGB+8EqHDXlsP5yz/ew+FNsGXNg0Ca4w+fCUAtaKKrCWAtd64BgH2hPEJvby+1egEoM9LbS29vL5N6R8oAPJ7Vq1fzmc98hv9Fd999NwD/KQZgf2s6/C38Zc0wV7y4EYCbXvsergQA/htBhpnnfIc7e1fz7RUAo/z0Nd9hCwDwZJVHegFg4UxmAgB7o/wgN64FGo/j11f+hOObAHp58M49wEyOP7wLgKdjy08Op7u7m0nd3Ufw1bUA/+Sl3d10d3czqfstNwLgsmeLAfhvAE2c/pufcBoAvfT2AgD08o+PvIbXvOY1vOY17+EvW2DLX17C8cd/hBtHAGB/gYW85zcfphNgyxp6AQBG7uQn73kNr3nNa3jNa77DneUyd37leI5/yV9YAwAkurpmAsCDW9gCAOyNB2/kRiD9ks/wmoUAAHdy5U1A4+kcPhMAHk8GANiXmW+5k927dzNp9+47+PACgLP58+7d7N69m0m7f3I8AI9n0aJFfOYzn+F/0aGHHgrAf4oB+E978Dfv4R9bAKAWmSaaANJddDUBwJ1vWclb1qzk8PKV/PYfIzR1Ab0PctNNX+U9v9kCwOO58iWCiPBkyMLvsAUA2Bv0cuVXfsKdZQCoRVMXTQAzF9IFQC+/Oed4fsPpNK35Lb99ELoyMPLgndx0/kv5ypUAkMgsXEknAPB41tx4IxXg8MMXApDgziv5B5A+/XRWAgC1oJc1WwBWsHIhAOwLmSa6urqo1QVAhqauLrq6upjU1ZQBwGXPFgPwn9Z75Xf5ypW9ANRiyxoeBGa85yOcngHKV/KTB9/Dlb9ZyI03dvHtO3/D6RmYec5bWAAAPJHjf7Kb3bt382TsvvMtzAQA9gZl1vzmrfzmTgCoxZo7WUsjZ3/mJcwEWPMXftL1G658Sy83bnkxV9z4HmaS4fTXnANALVYez/EAI72MAAC1oMyDN64FFnDO8V0AJLbceSMVYOXxK8mUy5QBgEnQy0gF6Dyd42cCgMv+2xiA/7QycNdHPsOdAEACRvjHRz5D73G/5sqvrASAzOn85s7X8OA5Z3Dna/7CexYCwKSVC2cC8HgyTV10dXXxZHQ1ZQDYFyhTBn76md/QCwAkKK/hKx85nxlv/ge/eUkXACx8D3f+ZSYfOfy9zPzObzi9CQASsIKVCwEgAcdzztnAngdZUwaAWnAjV14FpI9n5UwAgDJ3XrkWgJnlf3D8ytP5yxoAmMSaNTwIdL7mJawEAFz2VEEvfzldEBGO/00vAM8mA/CfBFvYsgYY/SlHSBMrT38Nr3nN6azsOp6fzPwNa258DQsBgET5L2/htTelOf2chQAkWPMgazmO41cCwL8bbGHNWuCm19KdmcnxL3kNr3nJ8cxc+BrWvOUOHvzJ8TQBAIk1H3kJPx09jnOOzwCQ2LJmDaQP5/CZAJCADC95z5tJcxX/uBEAarFlDXcC6dOPZyEAAL309gLA+T+5kdf840pesxAAJvXeeSVrWcBH3rISgP8llEfo7e0lMVIGgP2hXAaALb29ADybDMB/EszkPQ8qqiWGd6/hyt98ha985S/c2fsgV37lHLoAgASU+cdv/gnMZGEXACTuvPJKOOwlnN4FAP9ucDq/UUW1xPCWO/nLd77CV35yJVu23Mlv3nI4TQBAAh7kN7/ZCnTR1QUAMMKNVz5E+jUv4XAAYBLHf4afHAf/+M2VlAGAScx8C3fu3k3vX15CFwAAM3nPncPs3j1Mac1feM3CDACToJd//OQmGl/9Hd4yEwCeLJjJe9Yoqn/hdADg6YIyI7299PaOUAYAnsjInT/hJSu7mHn6W/jIRz7CR97zEhZmBVn4Ev6yBgD+U6CL11w5zO7dw6z5yEoAnk0GYH+ADE1dXXR1ddHV1UQGANgXWMuVd44AUF7zFd7y3TJv/s5b6AIA/lMgQ1NXF11dXXQ1ZQB4PHAnNz4IACP/eAvvueo4fvKZ4wGoBV285jffZuH57+E7awBgEmRo6uqiKQMAk8g00dXVRAYAqMWdn+Eja17MX75zOhkA4D+t9x+vYWHTTM55z0f4yGsOJytC1zm/YQsAUAtGuPItM2k+/TfM/Moattz4F37zm9/wm7/cSO/wHXw4cz4vXdTEW+4EgP8UMk10dTWRAQCeTQbgvxVkeMlv/syLO+GqlzaTacqQXfQbVv59DT85HAD+28BKPvKPD3NYeitfPUBoahKa3zLCZ+74B6/pAoC9MfM93HjFSr7zku+wBgB4Ohi5kpeccyefufMvnN4EAP9pI1e+hIXPv5Fzbuzlxr/8ht9cuYYHPjyDPf98LStfcyNlACABI1z5kpmc8VN48z+u5CunNwEwiabD+co/vs0CRvnp8W/hTgDgf50B+G9G10v4S6+ipWG2bBlBdQ2/OacLgP9WTYd/hTvLipaG2dKraO+VvOfwJgAeT9Ppf2HNZx7k9MO/w5oyADwVjNzIW47/DDP/cSPvWQgA/2mwhd985HxG2UrvCAAkVr7kJXQCo7/9DXcCAImRv7yEM84fZcaH/8FPjm8CYG/MPIe3rAAqP+U7VwLA/zoD8L+ATBNdTRkA/leQaaIpAwBPRtM5v2HLP46nXAaAp4JyE2+58U6+cngTAPsDzOT0j7yY487+Nm9ZCQAJmrpoAgDKAADlK3nLa66C9Gl85T0rAdgXmMnChQBw540PAvC/zgC47L8NXStZ2QQATwVdK1nZBAD708KX/IUb//EeDm8CgET5zitZC3Da6awEAHr/8hXOr0D6nPdwThcA/Cu9I2UA/tcZAJe57D8BtvCTz1wFHMa3v/MSugDo5crf3ATA4aevJAMA7AuUGRkBgJUrZwLwv84AuMxl/wlrvnMO7127gHffcCXvWQgA8CA33gTQyMqFXQA8HljDgw8CNLJyZRcAlLdw5Xfew0uOX8jK01/DR37zICMAwP8CA+Ayl/27rfnOSha9N8OH77iT7xzfBECC3l62ALCSlTMB4PGw5Ub+sQdoPIdzVgI8yEcWzuI7TZ/hLzeu4c7PNPGX1x7AzNdcSRkA+G9nAFzmsn+nNd9ZyaL3Zvj26hv5yuFNAEyiKUMGgF5GygDweNb85DusBWa85T2cnoHyXz7DV7dCJpMBIHP4W3jLAhj97V+4EQD4b2cAXOayf5c13zmcRe/N8O3Vd/KehRkAoJcrf/MPtpSBzEJWdgKs5cY7ywDsC+Ur+cx3tkLji/nJR1YCkDn9K1zx9xv4zjkZAJ4MRu7kJ+95Da95zWt4zWu+w53lMnd+5XiOf8lfWAMA/CcZAJe57N+BNV/hnPfexYpv/4X3LASABFv+wnte+w/WZABW8prXzADgn9/5Db0AQC0Y4crXvITzKzN48z9+wulNAEDTQk4/53hmZgCA3hv5x1pofPNbOB0AqAW9/Oac4/kNp9O05rf89kHoysDIg3dy0/kv5StXAsB/kgFwmcuebdDLb97yUdbSycLMg/zjH/8g8Y9//ITXHP9e1i5YyUIAYOFXruTbK4C73srhH7mTMgCQoLyF35yzkDNuXMiHb3iQnxzfBMDeYITfvOat3HXYt7nzJ4cDsDfW/IWfdP2GK9/Sy41bXswVN76HmWQ4/TXnALA/GACXuezZBg9y5U0Aezj/rc/n+c9/PonnP/+t/HYrsHIhMwEAWMh77tzM31+9gt6vHkE2s5LTX/MaXvOS45k583h+M/MrPLDmTr5yfBMAe4MRrnzJTN5T/jWr73wPCwGAvbHwPdz5l5l85PD3MvM7v+H0JgBIwApWLgSA/yQD4DKXPdvgdP6iiqqyL/qX0wGYRGYm5/zmQXrv+DKH0csIK3nJZ65kS+8WbvzOa1jZBAB7gxGufMlMXlL+CWtufA0LAYDHs+YjL+Gno8dxzvEZABJb1qyB9OEcPhMA/pMMgMtctr9BL385p4vmI/7Cyu98h6985C2cvjADwBNZ853jOWPNZ7jzHy+hC4At/OT493AjAFALHuQ3v9kKdNHVBQAwwo1XPkT6NS/hcADgP8kAuMxl+xMjN/KWmSv5TtNLePeLM/zjrS/lhEVZpOtwPnJlL2UAANbwl9/cSRkAYM1HOP29D/Hij7yEpt5eent72fKPj/CRO8tkgJEbv8JrXvMefnLnCACT4E5ufBAARv7xFt5z1XH85DPHA/CfZgBc5rL9acuVv2HkIzdy42++w3f+cie9w3fw7dM6Yc9dfPWMbrLSRFdXF10z30PvwoVkAIAtV/6DrcD5L+2mu7ubxKznn8/o4YczE1jzj+/w299+l7e+5TdsAWAlH/nHhzksvZWvHiA0NQnNbxnhM3f8g9d0AcB/mgFwmcv2p5kv+Q1/ectCMgAATYfznit7Ke1+gCv+/mM+/O7P8J3fXMmDa67kPYc3AZDoesuDqCp70xtfQxdw+Hd60TveTWMZABJNh3+FO8uKlobZ0qto75W85/AmAPYHA+Ayl/03ynSt5PRz3sJXvvMeXnL6SroyADApk8kA8HjKa/7Ba17zF875zmuYCQBMItNEUwYA9icD4DKX/X80MtLERx7s5TenNwHw38gAuMxl/x91HX48CzMA8N/KALjMZS7bnwyAy1zmsv3JALjMZS7bnwyAy1zmsv3p/wCTD5bAOiNfqAAAAABJRU5ErkJggg==;clipPath=inset(58.33% 12.44% 1.39% 71.27%);" vertex="1" parent="1">
          <mxGeometry x="888.75" y="556.94" width="25" height="20.16" as="geometry" />
        </mxCell>
        <mxCell id="n0JWKjeLG8hHYBPUIH6i-14" value="Unreachability Analyzer" style="text;html=1;align=center;verticalAlign=middle;whiteSpace=wrap;rounded=0;fontStyle=1" vertex="1" parent="1">
          <mxGeometry x="946.5" y="496.5" width="152.5" height="30" as="geometry" />
        </mxCell>
        <mxCell id="n0JWKjeLG8hHYBPUIH6i-18" value="v" style="text;html=1;align=center;verticalAlign=middle;whiteSpace=wrap;rounded=0;" vertex="1" parent="1">
          <mxGeometry x="880" y="343.5" width="60" height="30" as="geometry" />
        </mxCell>
        <mxCell id="lMV4DP2rYy61IQfFI9Z5-4" value="&lt;font style=&quot;font-size: 11px;&quot;&gt;Path Group 3&amp;nbsp;&amp;nbsp;&lt;/font&gt;" style="strokeWidth=2;html=1;shape=mxgraph.flowchart.multi-document;whiteSpace=wrap;fontStyle=1" parent="1" vertex="1">
          <mxGeometry x="493" y="500" width="88" height="60" as="geometry" />
        </mxCell>
        <mxCell id="lMV4DP2rYy61IQfFI9Z5-3" value="&lt;font style=&quot;font-size: 11px;&quot;&gt;Path Group 2&amp;nbsp;&amp;nbsp;&lt;/font&gt;" style="strokeWidth=2;html=1;shape=mxgraph.flowchart.multi-document;whiteSpace=wrap;fontStyle=1" parent="1" vertex="1">
          <mxGeometry x="493" y="420" width="88" height="60" as="geometry" />
        </mxCell>
        <mxCell id="n0JWKjeLG8hHYBPUIH6i-24" value="" style="endArrow=none;html=1;rounded=0;entryX=1;entryY=0.5;entryDx=0;entryDy=0;exitX=0;exitY=0.5;exitDx=0;exitDy=0;" edge="1" parent="1" source="lMV4DP2rYy61IQfFI9Z5-7" target="lMV4DP2rYy61IQfFI9Z5-7">
          <mxGeometry width="50" height="50" relative="1" as="geometry">
            <mxPoint x="540" y="680" as="sourcePoint" />
            <mxPoint x="590" y="630" as="targetPoint" />
          </mxGeometry>
        </mxCell>
        <mxCell id="n0JWKjeLG8hHYBPUIH6i-28" value="Scheduler" style="text;html=1;align=center;verticalAlign=middle;whiteSpace=wrap;rounded=0;fontStyle=1" vertex="1" parent="1">
          <mxGeometry x="540" y="655" width="100" height="30" as="geometry" />
        </mxCell>
        <mxCell id="n0JWKjeLG8hHYBPUIH6i-54" style="edgeStyle=orthogonalEdgeStyle;rounded=0;orthogonalLoop=1;jettySize=auto;html=1;exitX=0.5;exitY=0;exitDx=0;exitDy=0;exitPerimeter=0;entryX=0.5;entryY=1;entryDx=0;entryDy=0;" edge="1" parent="1" source="n0JWKjeLG8hHYBPUIH6i-30" target="lMV4DP2rYy61IQfFI9Z5-1">
          <mxGeometry relative="1" as="geometry">
            <Array as="points">
              <mxPoint x="540" y="614" />
            </Array>
          </mxGeometry>
        </mxCell>
        <mxCell id="n0JWKjeLG8hHYBPUIH6i-30" value="Interesting?" style="strokeWidth=2;html=1;shape=mxgraph.flowchart.decision;whiteSpace=wrap;" vertex="1" parent="1">
          <mxGeometry x="497" y="613.5" width="86" height="53" as="geometry" />
        </mxCell>
        <mxCell id="n0JWKjeLG8hHYBPUIH6i-35" value="Reachability Analyzer" style="text;html=1;align=center;verticalAlign=middle;whiteSpace=wrap;rounded=0;fontStyle=1" vertex="1" parent="1">
          <mxGeometry x="954.74" y="305.5" width="152.5" height="30" as="geometry" />
        </mxCell>
        <mxCell id="n0JWKjeLG8hHYBPUIH6i-43" value="" style="edgeStyle=orthogonalEdgeStyle;rounded=0;orthogonalLoop=1;jettySize=auto;html=1;exitX=0;exitY=0.5;exitDx=0;exitDy=0;endArrow=none;endFill=0;" edge="1" parent="1" source="lMV4DP2rYy61IQfFI9Z5-7">
          <mxGeometry relative="1" as="geometry">
            <mxPoint x="450" y="640" as="sourcePoint" />
            <mxPoint x="320" y="420" as="targetPoint" />
            <Array as="points">
              <mxPoint x="320" y="640" />
            </Array>
          </mxGeometry>
        </mxCell>
        <mxCell id="n0JWKjeLG8hHYBPUIH6i-49" value="" style="endArrow=classic;html=1;rounded=0;entryX=0.75;entryY=0;entryDx=0;entryDy=0;" edge="1" parent="1" target="lMV4DP2rYy61IQfFI9Z5-11">
          <mxGeometry width="50" height="50" relative="1" as="geometry">
            <mxPoint x="769" y="270" as="sourcePoint" />
            <mxPoint x="799" y="235" as="targetPoint" />
          </mxGeometry>
        </mxCell>
        <mxCell id="n0JWKjeLG8hHYBPUIH6i-50" value="&lt;font&gt;Initializing seeds&lt;/font&gt;" style="text;html=1;align=center;verticalAlign=middle;resizable=0;points=[];autosize=1;strokeColor=none;fillColor=none;fontStyle=1;labelBackgroundColor=none;labelBorderColor=default;fontSize=13;" vertex="1" parent="1">
          <mxGeometry x="714" y="249" width="113" height="28" as="geometry" />
        </mxCell>
        <mxCell id="n0JWKjeLG8hHYBPUIH6i-53" value="&lt;font&gt;Output&lt;/font&gt;" style="text;html=1;align=left;verticalAlign=middle;resizable=0;points=[];autosize=1;strokeColor=none;fillColor=none;fontStyle=1;labelBorderColor=default;fontSize=13;" vertex="1" parent="1">
          <mxGeometry x="1134" y="388" width="57" height="28" as="geometry" />
        </mxCell>
        <mxCell id="n0JWKjeLG8hHYBPUIH6i-55" value="&lt;font style=&quot;font-size: 10px;&quot;&gt;y&lt;/font&gt;" style="text;html=1;align=center;verticalAlign=middle;resizable=0;points=[];autosize=1;strokeColor=none;fillColor=none;" vertex="1" parent="1">
          <mxGeometry x="530" y="587.5" width="30" height="30" as="geometry" />
        </mxCell>
        <mxCell id="n0JWKjeLG8hHYBPUIH6i-56" value="n" style="text;html=1;align=center;verticalAlign=middle;resizable=0;points=[];autosize=1;strokeColor=none;fillColor=none;" vertex="1" parent="1">
          <mxGeometry x="450" y="617.5" width="30" height="30" as="geometry" />
        </mxCell>
        <mxCell id="n0JWKjeLG8hHYBPUIH6i-60" value="Seed" style="text;whiteSpace=wrap;fontSize=10;" vertex="1" parent="1">
          <mxGeometry x="690" y="617.5" width="80" height="22.5" as="geometry" />
        </mxCell>
        <mxCell id="n0JWKjeLG8hHYBPUIH6i-66" value="New discovery rate" style="text;whiteSpace=wrap;fontSize=10;fontStyle=1" vertex="1" parent="1">
          <mxGeometry x="941.6299999999999" y="547.25" width="94" height="22.5" as="geometry" />
        </mxCell>
        <mxCell id="n0JWKjeLG8hHYBPUIH6i-67" value="Test completion" style="text;whiteSpace=wrap;fontSize=10;fontStyle=1" vertex="1" parent="1">
          <mxGeometry x="950.3699999999999" y="586.29" width="94" height="22.5" as="geometry" />
        </mxCell>
        <mxCell id="n0JWKjeLG8hHYBPUIH6i-70" value="m" style="text;html=1;align=center;verticalAlign=middle;whiteSpace=wrap;rounded=0;" vertex="1" parent="1">
          <mxGeometry x="880" y="457.5" width="60" height="30" as="geometry" />
        </mxCell>
        <mxCell id="n0JWKjeLG8hHYBPUIH6i-71" value="Unimportant seed" style="text;whiteSpace=wrap;fontSize=10;" vertex="1" parent="1">
          <mxGeometry x="350" y="617.5" width="90" height="22.5" as="geometry" />
        </mxCell>
        <mxCell id="n0JWKjeLG8hHYBPUIH6i-73" style="edgeStyle=orthogonalEdgeStyle;rounded=0;orthogonalLoop=1;jettySize=auto;html=1;entryX=0.012;entryY=0.474;entryDx=0;entryDy=0;entryPerimeter=0;jumpStyle=arc;" edge="1" parent="1">
          <mxGeometry relative="1" as="geometry">
            <mxPoint x="1104" y="572.5172413793102" as="sourcePoint" />
            <mxPoint x="1134.6000000000001" y="572.7199999999999" as="targetPoint" />
            <Array as="points">
              <mxPoint x="1114" y="572.5" />
              <mxPoint x="1114" y="572.5" />
            </Array>
          </mxGeometry>
        </mxCell>
        <mxCell id="n0JWKjeLG8hHYBPUIH6i-77" value="&lt;div style=&quot;line-height: 100%;&quot;&gt;&lt;div&gt;&lt;b style=&quot;line-height: 140%;&quot;&gt;Path 1&lt;/b&gt;&lt;/div&gt;&lt;font style=&quot;font-size: 14px;&quot;&gt;v&amp;nbsp; &lt;b style=&quot;&quot;&gt;&amp;nbsp;☒&lt;/b&gt;&lt;/font&gt;&lt;div&gt;&lt;font style=&quot;font-size: 14px;&quot;&gt;x&amp;nbsp; &amp;nbsp;&lt;b style=&quot;&quot;&gt;☑&lt;/b&gt;&lt;/font&gt;&lt;/div&gt;&lt;div&gt;......&lt;/div&gt;&lt;/div&gt;" style="rounded=0;whiteSpace=wrap;html=1;align=left;" vertex="1" parent="1">
          <mxGeometry x="922" y="335.5" width="40" height="61" as="geometry" />
        </mxCell>
        <mxCell id="n0JWKjeLG8hHYBPUIH6i-80" style="edgeStyle=orthogonalEdgeStyle;rounded=0;orthogonalLoop=1;jettySize=auto;html=1;exitX=0;exitY=0.5;exitDx=0;exitDy=0;entryX=0;entryY=0.5;entryDx=0;entryDy=0;" edge="1" parent="1" source="lMV4DP2rYy61IQfFI9Z5-8" target="n0JWKjeLG8hHYBPUIH6i-77">
          <mxGeometry relative="1" as="geometry">
            <Array as="points">
              <mxPoint x="904" y="401.5" />
              <mxPoint x="904" y="365.5" />
            </Array>
          </mxGeometry>
        </mxCell>
        <mxCell id="n0JWKjeLG8hHYBPUIH6i-87" style="edgeStyle=orthogonalEdgeStyle;rounded=0;orthogonalLoop=1;jettySize=auto;html=1;exitX=1;exitY=0.5;exitDx=0;exitDy=0;entryX=0;entryY=0.5;entryDx=0;entryDy=0;entryPerimeter=0;" edge="1" parent="1" source="n0JWKjeLG8hHYBPUIH6i-81" target="n0JWKjeLG8hHYBPUIH6i-83">
          <mxGeometry relative="1" as="geometry">
            <mxPoint x="1004" y="437.5" as="targetPoint" />
          </mxGeometry>
        </mxCell>
        <mxCell id="n0JWKjeLG8hHYBPUIH6i-81" value="&lt;div style=&quot;line-height: 100%;&quot;&gt;&lt;div&gt;&lt;b style=&quot;line-height: 140%;&quot;&gt;Path n&lt;/b&gt;&lt;/div&gt;&lt;font style=&quot;font-size: 14px;&quot;&gt;m &amp;nbsp;&lt;b style=&quot;&quot;&gt;☒&lt;/b&gt;&lt;/font&gt;&lt;div&gt;&lt;font style=&quot;font-size: 14px;&quot;&gt;a&amp;nbsp; &amp;nbsp;&lt;b style=&quot;&quot;&gt;☒&lt;/b&gt;&lt;/font&gt;&lt;/div&gt;&lt;div&gt;......&lt;/div&gt;&lt;/div&gt;" style="rounded=0;whiteSpace=wrap;html=1;align=left;" vertex="1" parent="1">
          <mxGeometry x="922" y="432" width="40" height="61" as="geometry" />
        </mxCell>
        <mxCell id="n0JWKjeLG8hHYBPUIH6i-82" value="..." style="text;html=1;align=center;verticalAlign=middle;whiteSpace=wrap;rounded=0;fontStyle=1" vertex="1" parent="1">
          <mxGeometry x="910.5" y="397.5" width="60" height="30" as="geometry" />
        </mxCell>
        <mxCell id="n0JWKjeLG8hHYBPUIH6i-84" style="edgeStyle=orthogonalEdgeStyle;rounded=0;orthogonalLoop=1;jettySize=auto;html=1;exitX=1;exitY=0.5;exitDx=0;exitDy=0;exitPerimeter=0;entryX=0;entryY=0.502;entryDx=0;entryDy=0;entryPerimeter=0;" edge="1" parent="1" source="n0JWKjeLG8hHYBPUIH6i-83" target="n0JWKjeLG8hHYBPUIH6i-53">
          <mxGeometry relative="1" as="geometry">
            <mxPoint x="1104" y="402.05172413793116" as="targetPoint" />
          </mxGeometry>
        </mxCell>
        <mxCell id="n0JWKjeLG8hHYBPUIH6i-113" style="edgeStyle=orthogonalEdgeStyle;rounded=0;orthogonalLoop=1;jettySize=auto;html=1;exitX=0.5;exitY=1;exitDx=0;exitDy=0;exitPerimeter=0;entryX=0;entryY=0.5;entryDx=0;entryDy=0;" edge="1" parent="1" source="n0JWKjeLG8hHYBPUIH6i-83" target="n0JWKjeLG8hHYBPUIH6i-112">
          <mxGeometry relative="1" as="geometry" />
        </mxCell>
        <mxCell id="n0JWKjeLG8hHYBPUIH6i-83" value="&lt;div style=&quot;line-height: 90%;&quot;&gt;&lt;font style=&quot;font-size: 10px; line-height: 90%;&quot;&gt;&lt;b&gt;All&lt;/b&gt;&lt;/font&gt;&lt;div&gt;&lt;font style=&quot;font-size: 10px; line-height: 90%;&quot;&gt;&lt;b&gt;&amp;nbsp;satisfy?&lt;/b&gt;&lt;/font&gt;&lt;/div&gt;&lt;/div&gt;" style="strokeWidth=2;html=1;shape=mxgraph.flowchart.decision;whiteSpace=wrap;" vertex="1" parent="1">
          <mxGeometry x="1007" y="379.25" width="67" height="45.5" as="geometry" />
        </mxCell>
        <mxCell id="n0JWKjeLG8hHYBPUIH6i-86" style="edgeStyle=orthogonalEdgeStyle;rounded=0;orthogonalLoop=1;jettySize=auto;html=1;exitX=1;exitY=0.5;exitDx=0;exitDy=0;entryX=0;entryY=0.5;entryDx=0;entryDy=0;entryPerimeter=0;" edge="1" parent="1" source="n0JWKjeLG8hHYBPUIH6i-77" target="n0JWKjeLG8hHYBPUIH6i-83">
          <mxGeometry relative="1" as="geometry" />
        </mxCell>
        <mxCell id="n0JWKjeLG8hHYBPUIH6i-88" style="edgeStyle=orthogonalEdgeStyle;rounded=0;orthogonalLoop=1;jettySize=auto;html=1;exitX=0;exitY=0.5;exitDx=0;exitDy=0;entryX=0;entryY=0.5;entryDx=0;entryDy=0;" edge="1" parent="1" source="lMV4DP2rYy61IQfFI9Z5-8" target="n0JWKjeLG8hHYBPUIH6i-81">
          <mxGeometry relative="1" as="geometry">
            <Array as="points">
              <mxPoint x="864" y="402" />
              <mxPoint x="904" y="402" />
              <mxPoint x="904" y="463" />
            </Array>
          </mxGeometry>
        </mxCell>
        <mxCell id="n0JWKjeLG8hHYBPUIH6i-89" value="Scheduler" style="text;html=1;align=center;verticalAlign=middle;whiteSpace=wrap;rounded=0;fontStyle=1" vertex="1" parent="1">
          <mxGeometry x="1117.03" y="432" width="100" height="30" as="geometry" />
        </mxCell>
        <mxCell id="n0JWKjeLG8hHYBPUIH6i-93" style="edgeStyle=orthogonalEdgeStyle;rounded=0;orthogonalLoop=1;jettySize=auto;html=1;exitX=1;exitY=0.5;exitDx=0;exitDy=0;" edge="1" parent="1">
          <mxGeometry relative="1" as="geometry">
            <mxPoint x="926.25" y="568.6800000000001" as="sourcePoint" />
            <mxPoint x="946.25" y="568.5" as="targetPoint" />
          </mxGeometry>
        </mxCell>
        <mxCell id="n0JWKjeLG8hHYBPUIH6i-98" value="≈0" style="text;whiteSpace=wrap;fontSize=12;" vertex="1" parent="1">
          <mxGeometry x="1000.6300000000001" y="534.53" width="10" height="22.5" as="geometry" />
        </mxCell>
        <mxCell id="n0JWKjeLG8hHYBPUIH6i-100" value="≈1" style="text;whiteSpace=wrap;fontSize=12;" vertex="1" parent="1">
          <mxGeometry x="1001.6300000000001" y="571.53" width="10" height="22.5" as="geometry" />
        </mxCell>
        <mxCell id="n0JWKjeLG8hHYBPUIH6i-102" value="&lt;font style=&quot;font-size: 10px;&quot;&gt;Unreachable&lt;/font&gt;" style="text;html=1;align=center;verticalAlign=middle;resizable=0;points=[];autosize=1;strokeColor=none;fillColor=none;" vertex="1" parent="1">
          <mxGeometry x="1030.24" y="550.02" width="80" height="30" as="geometry" />
        </mxCell>
        <mxCell id="n0JWKjeLG8hHYBPUIH6i-105" value="Scheduler" style="text;html=1;align=center;verticalAlign=middle;whiteSpace=wrap;rounded=0;fontStyle=1" vertex="1" parent="1">
          <mxGeometry x="1117" y="557.5" width="100" height="30" as="geometry" />
        </mxCell>
        <mxCell id="n0JWKjeLG8hHYBPUIH6i-107" value="" style="endArrow=none;html=1;rounded=0;" edge="1" parent="1">
          <mxGeometry width="50" height="50" relative="1" as="geometry">
            <mxPoint x="1034" y="572.5" as="sourcePoint" />
            <mxPoint x="1104" y="572.3" as="targetPoint" />
          </mxGeometry>
        </mxCell>
        <mxCell id="n0JWKjeLG8hHYBPUIH6i-108" style="edgeStyle=orthogonalEdgeStyle;rounded=0;orthogonalLoop=1;jettySize=auto;html=1;exitX=0;exitY=0.5;exitDx=0;exitDy=0;entryX=0;entryY=0.5;entryDx=0;entryDy=0;" edge="1" parent="1" source="lMV4DP2rYy61IQfFI9Z5-16">
          <mxGeometry relative="1" as="geometry">
            <mxPoint x="883" y="568.6800000000001" as="targetPoint" />
            <Array as="points">
              <mxPoint x="864" y="568.5" />
            </Array>
          </mxGeometry>
        </mxCell>
        <mxCell id="n0JWKjeLG8hHYBPUIH6i-110" value="" style="endArrow=classic;html=1;rounded=0;entryX=0;entryY=0.397;entryDx=0;entryDy=0;entryPerimeter=0;exitX=0;exitY=0.678;exitDx=0;exitDy=0;exitPerimeter=0;" edge="1" parent="1" source="lMV4DP2rYy61IQfFI9Z5-1" target="lMV4DP2rYy61IQfFI9Z5-1">
          <mxGeometry width="50" height="50" relative="1" as="geometry">
            <mxPoint x="450" y="432" as="sourcePoint" />
            <mxPoint x="450" y="412" as="targetPoint" />
            <Array as="points">
              <mxPoint x="380" y="490" />
              <mxPoint x="380" y="412" />
            </Array>
          </mxGeometry>
        </mxCell>
        <mxCell id="n0JWKjeLG8hHYBPUIH6i-111" value="" style="rounded=1;whiteSpace=wrap;html=1;fillColor=none;" vertex="1" parent="1">
          <mxGeometry x="1134" y="561" width="66.06" height="23" as="geometry" />
        </mxCell>
        <mxCell id="n0JWKjeLG8hHYBPUIH6i-112" value="" style="rounded=1;whiteSpace=wrap;html=1;fillColor=none;" vertex="1" parent="1">
          <mxGeometry x="1134.03" y="435.5" width="66.06" height="23" as="geometry" />
        </mxCell>
        <mxCell id="n0JWKjeLG8hHYBPUIH6i-117" value="&lt;font style=&quot;font-size: 10px;&quot;&gt;y&lt;/font&gt;" style="text;html=1;align=center;verticalAlign=middle;resizable=0;points=[];autosize=1;strokeColor=none;fillColor=none;" vertex="1" parent="1">
          <mxGeometry x="1074" y="382" width="23" height="26" as="geometry" />
        </mxCell>
        <mxCell id="n0JWKjeLG8hHYBPUIH6i-118" value="&lt;font style=&quot;font-size: 10px;&quot;&gt;n&lt;/font&gt;" style="text;html=1;align=center;verticalAlign=middle;resizable=0;points=[];autosize=1;strokeColor=none;fillColor=none;" vertex="1" parent="1">
          <mxGeometry x="1039" y="424" width="24" height="26" as="geometry" />
        </mxCell>
        <mxCell id="n0JWKjeLG8hHYBPUIH6i-120" value="Crossover &#xa;mutation&#xa;within group" style="text;whiteSpace=wrap;fontSize=10;" vertex="1" parent="1">
          <mxGeometry x="403" y="424.75" width="66" height="47" as="geometry" />
        </mxCell>
      </root>
    </mxGraphModel>
  </diagram>
</mxfile>
